M48
;Layer_Color=9474304
;FILE_FORMAT=2:5
INCH,LZ
;TYPE=PLATED
T1F00S00C0.02800
T2F00S00C0.03346
T3F00S00C0.03543
T4F00S00C0.03937
T5F00S00C0.04000
T6F00S00C0.04100
T7F00S00C0.05000
T8F00S00C0.07000
T9F00S00C0.12500
%
T01
X0091Y00565
X0081Y0086
T02
X01975Y00845
Y01145
T03
X00525Y00125
Y00225
X00625
Y00125
X00725
X00825
X00925
X01025
X01125
X01225
X01325
X01425
Y00225
X01325
X01225
X01125
X01025
X00925
X00825
X00725
T04
X0065Y01195
X0075
X01065Y0119
X01165
X01265
X0157
X0167
X0177
X01765Y01555
X01665
X01565
X0127
X0117
X0107
X00755
X00655
X00555
X0055Y01195
T05
X0016Y0050756
X02225Y0059445
Y0071256
Y0083067
Y0094878
Y0106689
Y01185
Y0130311
Y0142122
X0016Y0133433
Y0121622
Y0109811
Y0098
Y0086189
Y0074378
Y0062567
T06
X02225Y0047634
X0016Y0145244
T07
X0023717Y0038945
X0214783Y0035823
Y0153933
X0023717Y0157055
T08
X0168Y00105
X0183
X0198
T09
X0011Y00125
X0222
X0223Y0177
X0012Y01795
M30
