G04*
G04 #@! TF.GenerationSoftware,Altium Limited,Altium Designer,19.1.5 (86)*
G04*
G04 Layer_Color=8388736*
%FSLAX25Y25*%
%MOIN*%
G70*
G01*
G75*
%ADD22R,0.04816X0.07965*%
%ADD23R,0.07965X0.04816*%
%ADD24R,0.01981X0.06509*%
%ADD25R,0.06509X0.01981*%
%ADD26O,0.06109X0.02762*%
%ADD27R,0.03162X0.05524*%
%ADD28C,0.08674*%
%ADD29C,0.13800*%
%ADD30C,0.17300*%
%ADD31C,0.06706*%
%ADD32R,0.06706X0.06706*%
%ADD33C,0.06312*%
%ADD34C,0.08300*%
%ADD35C,0.08800*%
%ADD36C,0.05800*%
D22*
X38988Y71500D02*
D03*
X50012D02*
D03*
D23*
X52000Y81488D02*
D03*
Y92512D02*
D03*
X38000Y81327D02*
D03*
Y92350D02*
D03*
D24*
X76236Y93138D02*
D03*
X78205D02*
D03*
X80173D02*
D03*
X82142D02*
D03*
X84110D02*
D03*
X86079D02*
D03*
X88047D02*
D03*
X90016D02*
D03*
X91984D02*
D03*
X93953D02*
D03*
X95921D02*
D03*
X97890D02*
D03*
X99858D02*
D03*
X101827D02*
D03*
X103795D02*
D03*
X105764D02*
D03*
Y47862D02*
D03*
X103795D02*
D03*
X101827D02*
D03*
X99858D02*
D03*
X97890D02*
D03*
X95921D02*
D03*
X93953D02*
D03*
X91984D02*
D03*
X90016D02*
D03*
X88047D02*
D03*
X86079D02*
D03*
X84110D02*
D03*
X82142D02*
D03*
X80173D02*
D03*
X78205D02*
D03*
X76236D02*
D03*
D25*
X113638Y85264D02*
D03*
Y83295D02*
D03*
Y81327D02*
D03*
Y79358D02*
D03*
Y77390D02*
D03*
Y75421D02*
D03*
Y73453D02*
D03*
Y71484D02*
D03*
Y69516D02*
D03*
Y67547D02*
D03*
Y65579D02*
D03*
Y63610D02*
D03*
Y61642D02*
D03*
Y59673D02*
D03*
Y57705D02*
D03*
Y55736D02*
D03*
X68362D02*
D03*
Y57705D02*
D03*
Y59673D02*
D03*
Y61642D02*
D03*
Y63610D02*
D03*
Y65579D02*
D03*
Y67547D02*
D03*
Y69516D02*
D03*
Y71484D02*
D03*
Y73453D02*
D03*
Y75421D02*
D03*
Y77390D02*
D03*
Y79358D02*
D03*
Y81327D02*
D03*
Y83295D02*
D03*
Y85264D02*
D03*
D26*
X156000Y75000D02*
D03*
Y80000D02*
D03*
Y85000D02*
D03*
Y90000D02*
D03*
X134543D02*
D03*
Y85000D02*
D03*
Y80000D02*
D03*
Y75000D02*
D03*
D27*
X189760Y54579D02*
D03*
X193500D02*
D03*
X197240D02*
D03*
Y64421D02*
D03*
X189760D02*
D03*
D28*
X107000Y155500D02*
D03*
X127000D02*
D03*
X117000D02*
D03*
X166500D02*
D03*
X176500D02*
D03*
X156500D02*
D03*
X116500Y119000D02*
D03*
X126500D02*
D03*
X106500D02*
D03*
X65500Y155500D02*
D03*
X75500D02*
D03*
X55500D02*
D03*
X167000Y119000D02*
D03*
X177000D02*
D03*
X157000D02*
D03*
X65000Y119500D02*
D03*
X75000D02*
D03*
X55000D02*
D03*
D29*
X168000Y10500D02*
D03*
X198000D02*
D03*
X183000D02*
D03*
D30*
X222000Y12500D02*
D03*
X11000D02*
D03*
X223000Y177000D02*
D03*
X12000Y179500D02*
D03*
D31*
X52500Y12500D02*
D03*
X62500D02*
D03*
X72500D02*
D03*
X82500D02*
D03*
X92500D02*
D03*
X102500D02*
D03*
X112500D02*
D03*
X122500D02*
D03*
X132500D02*
D03*
X142500D02*
D03*
X52500Y22500D02*
D03*
X62500D02*
D03*
X72500D02*
D03*
X82500D02*
D03*
X92500D02*
D03*
X102500D02*
D03*
X112500D02*
D03*
X122500D02*
D03*
X132500D02*
D03*
D32*
X142500D02*
D03*
D33*
X197500Y114500D02*
D03*
Y84500D02*
D03*
D34*
X214783Y35823D02*
D03*
Y153933D02*
D03*
X23717Y157055D02*
D03*
Y38945D02*
D03*
D35*
X222500Y142122D02*
D03*
Y130311D02*
D03*
Y118500D02*
D03*
Y106689D02*
D03*
Y94878D02*
D03*
Y83067D02*
D03*
Y71256D02*
D03*
Y59445D02*
D03*
Y47634D02*
D03*
X16000Y50756D02*
D03*
Y62567D02*
D03*
Y74378D02*
D03*
Y86189D02*
D03*
Y98000D02*
D03*
Y109811D02*
D03*
Y121622D02*
D03*
Y133433D02*
D03*
Y145244D02*
D03*
D36*
X91000Y56500D02*
D03*
X81000Y86000D02*
D03*
M02*
