G04*
G04 #@! TF.GenerationSoftware,Altium Limited,Altium Designer,19.1.5 (86)*
G04*
G04 Layer_Color=65535*
%FSLAX25Y25*%
%MOIN*%
G70*
G01*
G75*
%ADD10C,0.01000*%
%ADD11C,0.00984*%
%ADD12C,0.00500*%
%ADD13C,0.00100*%
%ADD14C,0.00787*%
%ADD15C,0.00800*%
D10*
X189700Y26500D02*
G03*
X189700Y26500I-6500J0D01*
G01*
X96685Y167311D02*
X134874D01*
X96685Y150776D02*
Y167311D01*
X138024Y150776D02*
Y165736D01*
X134874Y167311D02*
X136843D01*
X138024Y165736D02*
Y167311D01*
X136843D02*
X138024D01*
X134874Y147626D02*
X138024Y150776D01*
X99835Y147626D02*
X134874D01*
X96685Y150776D02*
X99835Y147626D01*
X164000Y44000D02*
X202000D01*
X164000Y6500D02*
Y44000D01*
Y6500D02*
X202000D01*
Y44000D01*
X146185Y150776D02*
X149335Y147626D01*
X184374D01*
X187524Y150776D01*
X186343Y167311D02*
X187524D01*
Y165736D02*
Y167311D01*
X184374D02*
X186343D01*
X187524Y150776D02*
Y165736D01*
X146185Y150776D02*
Y167311D01*
X184374D01*
X96185Y114276D02*
X99335Y111126D01*
X134374D01*
X137524Y114276D01*
X136343Y130811D02*
X137524D01*
Y129236D02*
Y130811D01*
X134374D02*
X136343D01*
X137524Y114276D02*
Y129236D01*
X96185Y114276D02*
Y130811D01*
X134374D01*
X45185Y150776D02*
X48335Y147626D01*
X83374D01*
X86524Y150776D01*
X85343Y167311D02*
X86524D01*
Y165736D02*
Y167311D01*
X83374D02*
X85343D01*
X86524Y150776D02*
Y165736D01*
X45185Y150776D02*
Y167311D01*
X83374D01*
X146685Y114276D02*
X149835Y111126D01*
X184874D01*
X188024Y114276D01*
X186843Y130811D02*
X188024D01*
Y129236D02*
Y130811D01*
X184874D02*
X186843D01*
X188024Y114276D02*
Y129236D01*
X146685Y114276D02*
Y130811D01*
X184874D01*
X44685Y114776D02*
X47835Y111626D01*
X82874D01*
X86024Y114776D01*
X84843Y131311D02*
X86024D01*
Y129736D02*
Y131311D01*
X82874D02*
X84843D01*
X86024Y114776D02*
Y129736D01*
X44685Y114776D02*
Y131311D01*
X82874D01*
X208327Y162988D02*
X230374D01*
X208327Y26768D02*
Y162988D01*
Y26768D02*
X230374D01*
Y162988D01*
X8126Y29890D02*
X30173D01*
Y166110D01*
X8126D02*
X30173D01*
X8126Y29890D02*
Y166110D01*
X38699Y103049D02*
X37699Y104049D01*
X35700D01*
X34700Y103049D01*
Y99050D01*
X35700Y98050D01*
X37699D01*
X38699Y99050D01*
X40698Y103049D02*
X41698Y104049D01*
X43697D01*
X44697Y103049D01*
Y102049D01*
X43697Y101049D01*
X42697D01*
X43697D01*
X44697Y100050D01*
Y99050D01*
X43697Y98050D01*
X41698D01*
X40698Y99050D01*
X40499Y64498D02*
X39499Y65498D01*
X37500D01*
X36500Y64498D01*
Y60500D01*
X37500Y59500D01*
X39499D01*
X40499Y60500D01*
X46497Y59500D02*
X42498D01*
X46497Y63499D01*
Y64498D01*
X45497Y65498D01*
X43498D01*
X42498Y64498D01*
X52699Y103198D02*
X51699Y104198D01*
X49700D01*
X48700Y103198D01*
Y99200D01*
X49700Y98200D01*
X51699D01*
X52699Y99200D01*
X54698Y98200D02*
X56697D01*
X55698D01*
Y104198D01*
X54698Y103198D01*
X164450Y53548D02*
Y49549D01*
X166449Y47550D01*
X168449Y49549D01*
Y53548D01*
X170448Y47550D02*
Y53548D01*
X173447D01*
X174447Y52548D01*
Y50549D01*
X173447Y49549D01*
X170448D01*
X172447D02*
X174447Y47550D01*
X176446D02*
X178445D01*
X177446D01*
Y53548D01*
X176446Y52548D01*
X131600Y102398D02*
Y97400D01*
X132600Y96400D01*
X134599D01*
X135599Y97400D01*
Y102398D01*
X137598Y96400D02*
X139597D01*
X138598D01*
Y102398D01*
X137598Y101398D01*
X195150Y120650D02*
Y126648D01*
X198149D01*
X199149Y125648D01*
Y123649D01*
X198149Y122649D01*
X195150D01*
X197149D02*
X199149Y120650D01*
X201148D02*
X203147D01*
X202148D01*
Y126648D01*
X201148Y125648D01*
X49699Y171800D02*
Y175798D01*
X48699Y176798D01*
X46700D01*
X45700Y175798D01*
Y171800D01*
X46700Y170800D01*
X48699D01*
X47699Y172799D02*
X49699Y170800D01*
X48699D02*
X49699Y171800D01*
X55697Y176798D02*
X53697Y175798D01*
X51698Y173799D01*
Y171800D01*
X52698Y170800D01*
X54697D01*
X55697Y171800D01*
Y172799D01*
X54697Y173799D01*
X51698D01*
X151199Y135300D02*
Y139298D01*
X150199Y140298D01*
X148200D01*
X147200Y139298D01*
Y135300D01*
X148200Y134300D01*
X150199D01*
X149199Y136299D02*
X151199Y134300D01*
X150199D02*
X151199Y135300D01*
X157197Y140298D02*
X153198D01*
Y137299D01*
X155197Y138299D01*
X156197D01*
X157197Y137299D01*
Y135300D01*
X156197Y134300D01*
X154198D01*
X153198Y135300D01*
X49199Y135800D02*
Y139798D01*
X48199Y140798D01*
X46200D01*
X45200Y139798D01*
Y135800D01*
X46200Y134800D01*
X48199D01*
X47199Y136799D02*
X49199Y134800D01*
X48199D02*
X49199Y135800D01*
X54197Y134800D02*
Y140798D01*
X51198Y137799D01*
X55197D01*
X150699Y171800D02*
Y175798D01*
X149699Y176798D01*
X147700D01*
X146700Y175798D01*
Y171800D01*
X147700Y170800D01*
X149699D01*
X148699Y172799D02*
X150699Y170800D01*
X149699D02*
X150699Y171800D01*
X152698Y175798D02*
X153698Y176798D01*
X155697D01*
X156697Y175798D01*
Y174799D01*
X155697Y173799D01*
X154697D01*
X155697D01*
X156697Y172799D01*
Y171800D01*
X155697Y170800D01*
X153698D01*
X152698Y171800D01*
X124999Y140500D02*
Y144498D01*
X123999Y145498D01*
X122000D01*
X121000Y144498D01*
Y140500D01*
X122000Y139500D01*
X123999D01*
X122999Y141499D02*
X124999Y139500D01*
X123999D02*
X124999Y140500D01*
X130997Y139500D02*
X126998D01*
X130997Y143499D01*
Y144498D01*
X129997Y145498D01*
X127998D01*
X126998Y144498D01*
X100699Y135300D02*
Y139298D01*
X99699Y140298D01*
X97700D01*
X96700Y139298D01*
Y135300D01*
X97700Y134300D01*
X99699D01*
X98699Y136299D02*
X100699Y134300D01*
X99699D02*
X100699Y135300D01*
X102698Y134300D02*
X104697D01*
X103698D01*
Y140298D01*
X102698Y139298D01*
X38400Y30900D02*
Y36898D01*
X41399D01*
X42399Y35898D01*
Y33899D01*
X41399Y32899D01*
X38400D01*
X44398Y30900D02*
X46397D01*
X45398D01*
Y36898D01*
X44398Y35898D01*
X187400Y76898D02*
X189399D01*
X188400D01*
Y70900D01*
X187400D01*
X189399D01*
X196397Y75898D02*
X195397Y76898D01*
X193398D01*
X192398Y75898D01*
Y71900D01*
X193398Y70900D01*
X195397D01*
X196397Y71900D01*
X202395Y70900D02*
X198396D01*
X202395Y74899D01*
Y75898D01*
X201396Y76898D01*
X199396D01*
X198396Y75898D01*
X65400Y106098D02*
X67399D01*
X66400D01*
Y100100D01*
X65400D01*
X67399D01*
X74397Y105098D02*
X73397Y106098D01*
X71398D01*
X70398Y105098D01*
Y101100D01*
X71398Y100100D01*
X73397D01*
X74397Y101100D01*
X76396Y100100D02*
X78396D01*
X77396D01*
Y106098D01*
X76396Y105098D01*
D11*
X66984Y88217D02*
G03*
X66984Y88217I-492J0D01*
G01*
D12*
X147472Y75200D02*
G03*
X147472Y79900I0J2350D01*
G01*
D02*
G03*
X147472Y75200I0J-2350D01*
G01*
D13*
X99000Y192600D02*
X99900D01*
X62500Y192500D02*
X68400D01*
X70600D02*
X76500D01*
X78800D02*
X84600D01*
X99000D02*
X99900D01*
X62200Y192400D02*
X62300D01*
X62400D02*
X68500D01*
X68600D02*
X68700D01*
X70300D02*
X70400D01*
X70500D02*
X76600D01*
X78700D02*
X84700D01*
X99000D02*
X99900D01*
X62100Y192300D02*
X62200D01*
X62300D02*
X68600D01*
X68700D02*
X68800D01*
X70200D02*
X70300D01*
X70400D02*
X76700D01*
X78600D02*
X84800D01*
X99000D02*
X99900D01*
X62200Y192200D02*
X68700D01*
X68800D02*
X68900D01*
X70100D02*
X70200D01*
X70300D02*
X76800D01*
X78500D02*
X84900D01*
X99000D02*
X99900D01*
X61900Y192100D02*
X62000D01*
X62100D02*
X68800D01*
X68900D02*
X69000D01*
X70000D02*
X70100D01*
X70200D02*
X76900D01*
X78400D02*
X85000D01*
X99000D02*
X99900D01*
X61800Y192000D02*
X61900D01*
X62000D02*
X68900D01*
X69000D02*
X69100D01*
X69900D02*
X70000D01*
X70100D02*
X77000D01*
X78300D02*
X85100D01*
X99000D02*
X99900D01*
X61900Y191900D02*
X62700D01*
X68200D02*
X69000D01*
X70000D02*
X70800D01*
X76300D02*
X77100D01*
X78200D02*
X85200D01*
X99000D02*
X99900D01*
X61800Y191800D02*
X62600D01*
X68300D02*
X69100D01*
X69900D02*
X70700D01*
X76400D02*
X77200D01*
X78100D02*
X85300D01*
X99000D02*
X99900D01*
X61700Y191700D02*
X62500D01*
X68400D02*
X69200D01*
X69900D02*
X70600D01*
X76500D02*
X77300D01*
X78000D02*
X85400D01*
X99000D02*
X99900D01*
X61700Y191600D02*
X62400D01*
X68500D02*
X69200D01*
X69800D02*
X70500D01*
X76600D02*
X77300D01*
X78000D02*
X85500D01*
X99000D02*
X99900D01*
X61700Y191500D02*
X62300D01*
X68600D02*
X69200D01*
X69800D02*
X70400D01*
X76700D02*
X77300D01*
X78000D02*
X85400D01*
X99000D02*
X99900D01*
X61700Y191400D02*
X62300D01*
X68600D02*
X69200D01*
X69800D02*
X70400D01*
X76700D02*
X77300D01*
X78000D02*
X85400D01*
X99000D02*
X99900D01*
X61700Y191300D02*
X62300D01*
X68600D02*
X69200D01*
X69800D02*
X70400D01*
X76700D02*
X77300D01*
X78000D02*
X85400D01*
X99000D02*
X99900D01*
X61700Y191200D02*
X62300D01*
X68600D02*
X69200D01*
X69800D02*
X70400D01*
X76700D02*
X77300D01*
X78000D02*
X85400D01*
X99000D02*
X99900D01*
X61700Y191100D02*
X62300D01*
X68600D02*
X69200D01*
X69800D02*
X70400D01*
X76700D02*
X77300D01*
X78000D02*
X85400D01*
X99000D02*
X99900D01*
X61700Y191000D02*
X62300D01*
X68600D02*
X69200D01*
X69800D02*
X70400D01*
X76700D02*
X77300D01*
X78000D02*
X85400D01*
X99000D02*
X99900D01*
X61700Y190900D02*
X62300D01*
X68600D02*
X69200D01*
X69800D02*
X70400D01*
X76700D02*
X77300D01*
X78000D02*
X85400D01*
X99000D02*
X99900D01*
X61700Y190800D02*
X62300D01*
X68600D02*
X69200D01*
X69800D02*
X70400D01*
X76700D02*
X77300D01*
X78000D02*
X85400D01*
X99000D02*
X99900D01*
X61700Y190700D02*
X62300D01*
X68600D02*
X69200D01*
X69800D02*
X70400D01*
X76700D02*
X77300D01*
X78000D02*
X85400D01*
X99000D02*
X99900D01*
X61700Y190600D02*
X62300D01*
X68600D02*
X69200D01*
X69800D02*
X70400D01*
X76700D02*
X77300D01*
X78000D02*
X85400D01*
X99000D02*
X99900D01*
X61700Y190500D02*
X62300D01*
X68600D02*
X69200D01*
X69800D02*
X70400D01*
X76700D02*
X77300D01*
X78000D02*
X85400D01*
X89100D02*
X90100D01*
X94800D02*
X95900D01*
X99000D02*
X99900D01*
X103000D02*
X104200D01*
X61700Y190400D02*
X62300D01*
X68600D02*
X69200D01*
X69800D02*
X70400D01*
X76700D02*
X77300D01*
X78000D02*
X85400D01*
X88600D02*
X90600D01*
X94400D02*
X96300D01*
X99000D02*
X99900D01*
X102500D02*
X104600D01*
X109500D02*
X110300D01*
X61700Y190300D02*
X62300D01*
X68600D02*
X69200D01*
X69800D02*
X70400D01*
X76700D02*
X77300D01*
X78000D02*
X85400D01*
X88300D02*
X90800D01*
X94200D02*
X96600D01*
X99000D02*
X99900D01*
X102200D02*
X104900D01*
X107200D02*
X108000D01*
X109200D02*
X110300D01*
X61700Y190200D02*
X62300D01*
X68600D02*
X69200D01*
X69800D02*
X70400D01*
X76700D02*
X77300D01*
X78000D02*
X85400D01*
X88100D02*
X91000D01*
X94000D02*
X96800D01*
X99000D02*
X99900D01*
X102100D02*
X105100D01*
X107200D02*
X108000D01*
X109000D02*
X110300D01*
X61700Y190100D02*
X62300D01*
X68600D02*
X69200D01*
X69800D02*
X70400D01*
X76700D02*
X77300D01*
X78000D02*
X85400D01*
X88000D02*
X91100D01*
X93800D02*
X96900D01*
X99000D02*
X99900D01*
X101900D02*
X105200D01*
X107200D02*
X108000D01*
X108800D02*
X110300D01*
X61700Y190000D02*
X62300D01*
X68600D02*
X69200D01*
X69800D02*
X70400D01*
X76700D02*
X77300D01*
X78000D02*
X85400D01*
X87800D02*
X91200D01*
X93700D02*
X97100D01*
X99000D02*
X99900D01*
X101800D02*
X105300D01*
X107200D02*
X108000D01*
X108700D02*
X110300D01*
X61700Y189900D02*
X62300D01*
X68600D02*
X69200D01*
X69800D02*
X70400D01*
X76700D02*
X77300D01*
X78000D02*
X85400D01*
X87700D02*
X91300D01*
X93500D02*
X97200D01*
X99000D02*
X99900D01*
X101700D02*
X105400D01*
X107200D02*
X108000D01*
X108500D02*
X110300D01*
X61700Y189800D02*
X62300D01*
X68600D02*
X69200D01*
X69800D02*
X70400D01*
X76700D02*
X77300D01*
X78000D02*
X85400D01*
X87600D02*
X89400D01*
X89600D02*
X91400D01*
X93400D02*
X95300D01*
X95500D02*
X97300D01*
X99000D02*
X99900D01*
X101600D02*
X103400D01*
X103600D02*
X105500D01*
X107200D02*
X108000D01*
X108400D02*
X110300D01*
X61700Y189700D02*
X62300D01*
X68600D02*
X69200D01*
X69800D02*
X70400D01*
X76700D02*
X77300D01*
X78000D02*
X85400D01*
X87600D02*
X88800D01*
X90200D02*
X91500D01*
X93300D02*
X94700D01*
X96000D02*
X97400D01*
X99000D02*
X99900D01*
X101500D02*
X102800D01*
X104300D02*
X105600D01*
X107200D02*
X108000D01*
X108100D02*
X108200D01*
X108300D02*
X110300D01*
X61700Y189600D02*
X62300D01*
X68600D02*
X69200D01*
X69800D02*
X70400D01*
X76700D02*
X77300D01*
X78000D02*
X85400D01*
X87500D02*
X88600D01*
X90400D02*
X91600D01*
X93200D02*
X94500D01*
X96300D02*
X97500D01*
X99000D02*
X99900D01*
X101400D02*
X102500D01*
X104500D02*
X105600D01*
X107200D02*
X108000D01*
X108300D02*
X110200D01*
X61700Y189500D02*
X62300D01*
X68600D02*
X69200D01*
X69800D02*
X70400D01*
X76700D02*
X77300D01*
X78000D02*
X85400D01*
X87400D02*
X88400D01*
X90300D02*
X90400D01*
X90600D02*
X91600D01*
X93200D02*
X94300D01*
X96400D02*
X97600D01*
X99000D02*
X99900D01*
X101400D02*
X102400D01*
X104400D02*
X104500D01*
X104700D02*
X105700D01*
X107200D02*
X108000D01*
X108200D02*
X109400D01*
X61700Y189400D02*
X62300D01*
X68600D02*
X69200D01*
X69800D02*
X70400D01*
X76700D02*
X77300D01*
X78000D02*
X85400D01*
X87400D02*
X88300D01*
X88500D02*
X88600D01*
X90700D02*
X91700D01*
X93100D02*
X94200D01*
X96300D02*
X96400D01*
X96600D02*
X97700D01*
X99000D02*
X99900D01*
X101300D02*
X102300D01*
X102400D02*
X102500D01*
X104800D02*
X105700D01*
X107200D02*
X108000D01*
X108100D02*
X109100D01*
X61700Y189300D02*
X62300D01*
X68600D02*
X69200D01*
X69800D02*
X70400D01*
X76700D02*
X77300D01*
X78000D02*
X85400D01*
X87400D02*
X88300D01*
X88400D02*
X88500D01*
X90800D02*
X91700D01*
X93000D02*
X94100D01*
X94200D02*
X94300D01*
X96700D02*
X97700D01*
X99000D02*
X99900D01*
X101300D02*
X102200D01*
X102300D02*
X102400D01*
X104800D02*
X105800D01*
X107200D02*
X108000D01*
X108100D02*
X109000D01*
X109200D02*
X109300D01*
X61700Y189200D02*
X62300D01*
X68600D02*
X69200D01*
X69800D02*
X70400D01*
X76700D02*
X77300D01*
X78000D02*
X85400D01*
X87300D02*
X88200D01*
X88300D02*
X88400D01*
X90800D02*
X91800D01*
X92900D02*
X94000D01*
X94100D02*
X94200D01*
X96800D02*
X97800D01*
X99000D02*
X99900D01*
X101200D02*
X102100D01*
X102200D02*
X102300D01*
X104900D02*
X105800D01*
X107200D02*
X108800D01*
X109000D02*
X109100D01*
X61700Y189100D02*
X62300D01*
X68600D02*
X69200D01*
X69800D02*
X70400D01*
X76700D02*
X77300D01*
X78000D02*
X85400D01*
X87300D02*
X88200D01*
X90900D02*
X91800D01*
X92900D02*
X93900D01*
X94000D02*
X94100D01*
X96900D02*
X97900D01*
X99000D02*
X99900D01*
X101200D02*
X102100D01*
X104900D02*
X105800D01*
X105900D02*
X106000D01*
X107200D02*
X108700D01*
X61700Y189000D02*
X62300D01*
X68600D02*
X69200D01*
X69800D02*
X70400D01*
X76700D02*
X77300D01*
X78000D02*
X85400D01*
X87300D02*
X88200D01*
X90900D02*
X91800D01*
X92800D02*
X93800D01*
X93900D02*
X94000D01*
X96900D02*
X97900D01*
X99000D02*
X99900D01*
X101200D02*
X102000D01*
X104900D02*
X105800D01*
X107200D02*
X108600D01*
X108700D02*
X108800D01*
X61700Y188900D02*
X62300D01*
X68600D02*
X69200D01*
X69800D02*
X70400D01*
X76700D02*
X77300D01*
X78000D02*
X85400D01*
X87300D02*
X88200D01*
X91000D02*
X91800D01*
X92800D02*
X93700D01*
X96800D02*
X96900D01*
X97000D02*
X98000D01*
X99000D02*
X99900D01*
X101100D02*
X102000D01*
X105000D02*
X105800D01*
X107200D02*
X108500D01*
X108600D02*
X108700D01*
X61700Y188800D02*
X62300D01*
X68600D02*
X69200D01*
X69800D02*
X70400D01*
X76700D02*
X77300D01*
X78000D02*
X85400D01*
X87300D02*
X88200D01*
X91000D02*
X91900D01*
X92700D02*
X93700D01*
X97100D02*
X98000D01*
X99000D02*
X99900D01*
X101100D02*
X102000D01*
X105000D02*
X105800D01*
X107200D02*
X108400D01*
X108500D02*
X108600D01*
X61700Y188700D02*
X62300D01*
X68600D02*
X69200D01*
X69800D02*
X70400D01*
X76700D02*
X77300D01*
X78000D02*
X85400D01*
X87300D02*
X88200D01*
X90800D02*
X90900D01*
X91000D02*
X91900D01*
X92700D02*
X93600D01*
X97100D02*
X98000D01*
X99000D02*
X99900D01*
X101100D02*
X102000D01*
X105000D02*
X105800D01*
X107200D02*
X108400D01*
X61700Y188600D02*
X62300D01*
X68600D02*
X69200D01*
X69800D02*
X70400D01*
X76700D02*
X77300D01*
X78000D02*
X85400D01*
X87300D02*
X88200D01*
X88300D02*
X88400D01*
X91000D02*
X91900D01*
X92700D02*
X93600D01*
X97200D02*
X98100D01*
X99000D02*
X99900D01*
X101100D02*
X101900D01*
X105000D02*
X105800D01*
X107200D02*
X108300D01*
X61700Y188500D02*
X62300D01*
X68600D02*
X69200D01*
X69800D02*
X70400D01*
X76700D02*
X77300D01*
X78000D02*
X85400D01*
X87300D02*
X88200D01*
X92600D02*
X93500D01*
X97000D02*
X97100D01*
X97200D02*
X98100D01*
X99000D02*
X99900D01*
X101100D02*
X101900D01*
X105000D02*
X105800D01*
X107200D02*
X108200D01*
X61700Y188400D02*
X62300D01*
X68600D02*
X69200D01*
X69800D02*
X70400D01*
X76700D02*
X77300D01*
X78000D02*
X85400D01*
X87300D02*
X88300D01*
X92600D02*
X93500D01*
X97200D02*
X98100D01*
X99000D02*
X99900D01*
X105000D02*
X105800D01*
X107200D02*
X108200D01*
X108300D02*
X108400D01*
X61700Y188300D02*
X62300D01*
X68600D02*
X69200D01*
X69800D02*
X70400D01*
X76700D02*
X77300D01*
X78000D02*
X85400D01*
X87400D02*
X88400D01*
X88600D02*
X88700D01*
X92600D02*
X93500D01*
X97300D02*
X98200D01*
X99000D02*
X99900D01*
X104900D02*
X105800D01*
X107200D02*
X108200D01*
X61700Y188200D02*
X62300D01*
X68600D02*
X69200D01*
X69800D02*
X70400D01*
X76700D02*
X77300D01*
X78000D02*
X85400D01*
X87400D02*
X88600D01*
X92600D02*
X93400D01*
X97300D02*
X98200D01*
X99000D02*
X99900D01*
X104900D02*
X105800D01*
X107200D02*
X108100D01*
X61700Y188100D02*
X62300D01*
X68600D02*
X69200D01*
X69800D02*
X70400D01*
X76700D02*
X77300D01*
X78000D02*
X85400D01*
X87500D02*
X88800D01*
X92500D02*
X93400D01*
X97300D02*
X98200D01*
X98300D02*
X98400D01*
X99000D02*
X99900D01*
X104800D02*
X105800D01*
X107200D02*
X108100D01*
X61700Y188000D02*
X62300D01*
X68600D02*
X69200D01*
X69800D02*
X70400D01*
X76700D02*
X77300D01*
X78000D02*
X85400D01*
X87500D02*
X89100D01*
X92500D02*
X93400D01*
X97300D02*
X98200D01*
X99000D02*
X99900D01*
X103400D02*
X103500D01*
X104600D02*
X105800D01*
X107200D02*
X108100D01*
X61700Y187900D02*
X62300D01*
X68600D02*
X69200D01*
X69800D02*
X70400D01*
X76700D02*
X77300D01*
X78000D02*
X85400D01*
X87600D02*
X89400D01*
X92500D02*
X93400D01*
X97400D02*
X98200D01*
X99000D02*
X99900D01*
X103900D02*
X105800D01*
X107200D02*
X108100D01*
X61700Y187800D02*
X62300D01*
X68600D02*
X69200D01*
X69800D02*
X70400D01*
X76700D02*
X77300D01*
X78000D02*
X85400D01*
X87700D02*
X89900D01*
X92500D02*
X93400D01*
X97400D02*
X98200D01*
X99000D02*
X99900D01*
X103100D02*
X105800D01*
X107200D02*
X108100D01*
X61700Y187700D02*
X62300D01*
X68600D02*
X69200D01*
X69800D02*
X70400D01*
X76700D02*
X77300D01*
X78000D02*
X85400D01*
X87800D02*
X90400D01*
X92500D02*
X93400D01*
X97200D02*
X97300D01*
X97400D02*
X98300D01*
X99000D02*
X99900D01*
X102500D02*
X105800D01*
X107200D02*
X108000D01*
X61700Y187600D02*
X62300D01*
X68600D02*
X69200D01*
X69800D02*
X70400D01*
X76700D02*
X77300D01*
X78000D02*
X85400D01*
X87900D02*
X90800D01*
X92500D02*
X93300D01*
X97400D02*
X98300D01*
X99000D02*
X99900D01*
X102100D02*
X105800D01*
X107200D02*
X108000D01*
X61700Y187500D02*
X62300D01*
X68600D02*
X69200D01*
X69800D02*
X70400D01*
X76700D02*
X77300D01*
X78000D02*
X85400D01*
X88100D02*
X91000D01*
X92500D02*
X93300D01*
X97400D02*
X98300D01*
X99000D02*
X99900D01*
X101800D02*
X105800D01*
X107200D02*
X108000D01*
X61700Y187400D02*
X62300D01*
X68600D02*
X69200D01*
X69800D02*
X70400D01*
X76700D02*
X77300D01*
X78000D02*
X85400D01*
X88300D02*
X91200D01*
X92500D02*
X93300D01*
X97400D02*
X98300D01*
X99000D02*
X99900D01*
X101600D02*
X104800D01*
X105000D02*
X105800D01*
X107200D02*
X108000D01*
X61700Y187300D02*
X62300D01*
X68600D02*
X69200D01*
X69800D02*
X70400D01*
X76700D02*
X77300D01*
X78000D02*
X85400D01*
X88600D02*
X91400D01*
X92500D02*
X93300D01*
X97400D02*
X98300D01*
X99000D02*
X99900D01*
X101500D02*
X104400D01*
X105000D02*
X105800D01*
X107200D02*
X108000D01*
X61700Y187200D02*
X62300D01*
X68600D02*
X69200D01*
X69800D02*
X70400D01*
X76700D02*
X77300D01*
X78000D02*
X85400D01*
X88900D02*
X91500D01*
X92500D02*
X93300D01*
X97400D02*
X98300D01*
X99000D02*
X99900D01*
X101400D02*
X103800D01*
X105000D02*
X105800D01*
X107200D02*
X108000D01*
X61700Y187100D02*
X62300D01*
X68600D02*
X69200D01*
X69800D02*
X70400D01*
X76700D02*
X77300D01*
X78000D02*
X85400D01*
X89400D02*
X91600D01*
X92500D02*
X93300D01*
X97400D02*
X98300D01*
X99000D02*
X99900D01*
X101200D02*
X103100D01*
X105000D02*
X105800D01*
X107200D02*
X108000D01*
X61700Y187000D02*
X62300D01*
X68600D02*
X69200D01*
X69800D02*
X70400D01*
X76700D02*
X77300D01*
X78000D02*
X85400D01*
X89800D02*
X91700D01*
X92500D02*
X93400D01*
X97200D02*
X97300D01*
X97400D02*
X98300D01*
X99000D02*
X99900D01*
X101200D02*
X102700D01*
X105000D02*
X105800D01*
X107200D02*
X108000D01*
X61700Y186900D02*
X62300D01*
X68600D02*
X69200D01*
X69800D02*
X70400D01*
X76700D02*
X77300D01*
X78000D02*
X85400D01*
X90200D02*
X91800D01*
X92500D02*
X93400D01*
X97400D02*
X98200D01*
X99000D02*
X99900D01*
X101100D02*
X102400D01*
X105000D02*
X105800D01*
X107200D02*
X108000D01*
X61700Y186800D02*
X62300D01*
X68600D02*
X69200D01*
X69800D02*
X70400D01*
X76700D02*
X77300D01*
X78000D02*
X85400D01*
X90500D02*
X91900D01*
X92500D02*
X93400D01*
X97400D02*
X98200D01*
X99000D02*
X99900D01*
X101000D02*
X102200D01*
X105000D02*
X105800D01*
X107200D02*
X108000D01*
X61700Y186700D02*
X62300D01*
X68600D02*
X69200D01*
X69800D02*
X70400D01*
X76700D02*
X77300D01*
X78000D02*
X85400D01*
X90800D02*
X91900D01*
X92500D02*
X93400D01*
X97300D02*
X98200D01*
X99000D02*
X99900D01*
X101000D02*
X102000D01*
X102200D02*
X102300D01*
X105000D02*
X105800D01*
X107200D02*
X108000D01*
X61700Y186600D02*
X62300D01*
X68600D02*
X69200D01*
X69800D02*
X70400D01*
X76700D02*
X77300D01*
X78000D02*
X85400D01*
X90900D02*
X92000D01*
X92500D02*
X93400D01*
X97300D02*
X98200D01*
X98300D02*
X98400D01*
X99000D02*
X99900D01*
X100900D02*
X101900D01*
X102000D02*
X102100D01*
X105000D02*
X105800D01*
X107200D02*
X108000D01*
X61700Y186500D02*
X62300D01*
X68600D02*
X69200D01*
X69800D02*
X70400D01*
X76700D02*
X77300D01*
X78000D02*
X85400D01*
X90800D02*
X90900D01*
X91000D02*
X92000D01*
X92600D02*
X93500D01*
X97300D02*
X98200D01*
X99000D02*
X99900D01*
X100900D02*
X101800D01*
X101900D02*
X102000D01*
X105000D02*
X105800D01*
X107200D02*
X108000D01*
X61700Y186400D02*
X62300D01*
X68600D02*
X69200D01*
X69800D02*
X70400D01*
X76700D02*
X77300D01*
X78000D02*
X85400D01*
X90900D02*
X91000D01*
X91100D02*
X92000D01*
X92600D02*
X93500D01*
X97300D02*
X98200D01*
X99000D02*
X99900D01*
X100900D02*
X101800D01*
X105000D02*
X105800D01*
X107200D02*
X108000D01*
X61700Y186300D02*
X62300D01*
X68600D02*
X69200D01*
X69800D02*
X70400D01*
X76700D02*
X77300D01*
X78000D02*
X85400D01*
X87100D02*
X87900D01*
X91200D02*
X92100D01*
X92600D02*
X93500D01*
X97200D02*
X98100D01*
X99000D02*
X99900D01*
X100800D02*
X101700D01*
X104900D02*
X105800D01*
X107200D02*
X108000D01*
X61700Y186200D02*
X62400D01*
X68500D02*
X69200D01*
X69800D02*
X70500D01*
X76700D02*
X77300D01*
X78000D02*
X85500D01*
X87100D02*
X88000D01*
X91200D02*
X92100D01*
X92600D02*
X93500D01*
X97200D02*
X98100D01*
X99000D02*
X99900D01*
X100800D02*
X101700D01*
X104900D02*
X105800D01*
X107200D02*
X108000D01*
X61700Y186100D02*
X62500D01*
X68400D02*
X69200D01*
X69800D02*
X70600D01*
X76600D02*
X77300D01*
X78000D02*
X85400D01*
X87100D02*
X88000D01*
X91200D02*
X92100D01*
X92700D02*
X93600D01*
X97100D02*
X98100D01*
X99000D02*
X99900D01*
X100800D02*
X101700D01*
X104900D02*
X105800D01*
X107200D02*
X108000D01*
X61800Y186000D02*
X62600D01*
X68300D02*
X69100D01*
X69900D02*
X70700D01*
X76500D02*
X77300D01*
X78000D02*
X85400D01*
X87100D02*
X88000D01*
X91200D02*
X92100D01*
X92700D02*
X93600D01*
X97100D02*
X98000D01*
X99000D02*
X99900D01*
X100800D02*
X101700D01*
X104800D02*
X105800D01*
X107200D02*
X108000D01*
X108800D02*
X111600D01*
X61900Y185900D02*
X62700D01*
X68200D02*
X69000D01*
X70000D02*
X70800D01*
X76400D02*
X77200D01*
X78100D02*
X85300D01*
X87100D02*
X88000D01*
X91200D02*
X92100D01*
X92700D02*
X93700D01*
X93800D02*
X93900D01*
X97000D02*
X98000D01*
X99000D02*
X99900D01*
X100800D02*
X101700D01*
X104600D02*
X104700D01*
X104800D02*
X105800D01*
X107200D02*
X108000D01*
X108800D02*
X111600D01*
X62000Y185800D02*
X62800D01*
X68000D02*
X68900D01*
X69900D02*
X70000D01*
X70100D02*
X70900D01*
X73300D02*
X73400D01*
X76300D02*
X77100D01*
X78000D02*
X78100D01*
X78200D02*
X85200D01*
X85300D02*
X85400D01*
X87200D02*
X88000D01*
X91200D02*
X92100D01*
X92800D02*
X93700D01*
X96800D02*
X96900D01*
X97000D02*
X98000D01*
X99000D02*
X99900D01*
X100800D02*
X101700D01*
X104800D02*
X105800D01*
X107200D02*
X108000D01*
X108800D02*
X111600D01*
X62100Y185700D02*
X68800D01*
X70000D02*
X70100D01*
X70200D02*
X77000D01*
X78100D02*
X78200D01*
X78300D02*
X85100D01*
X85200D02*
X85300D01*
X87200D02*
X88100D01*
X91200D02*
X92100D01*
X92800D02*
X93800D01*
X96700D02*
X96800D01*
X96900D02*
X97900D01*
X99000D02*
X99900D01*
X100800D02*
X101700D01*
X104500D02*
X104600D01*
X104700D02*
X105800D01*
X107200D02*
X108000D01*
X108800D02*
X111600D01*
X62200Y185600D02*
X68700D01*
X70300D02*
X76900D01*
X78200D02*
X78300D01*
X78400D02*
X85000D01*
X85100D02*
X85200D01*
X87200D02*
X88100D01*
X91100D02*
X92000D01*
X92900D02*
X93900D01*
X94000D02*
X94100D01*
X96900D02*
X97800D01*
X99000D02*
X99900D01*
X100800D02*
X101800D01*
X104400D02*
X104500D01*
X104600D02*
X105800D01*
X107200D02*
X108000D01*
X108800D02*
X111600D01*
X62300Y185500D02*
X68600D01*
X70200D02*
X70300D01*
X70400D02*
X76800D01*
X78300D02*
X78400D01*
X78500D02*
X84900D01*
X85000D02*
X85100D01*
X87300D02*
X88200D01*
X88300D02*
X88400D01*
X90900D02*
X91000D01*
X91100D02*
X92000D01*
X92900D02*
X94000D01*
X94100D02*
X94200D01*
X96800D02*
X97800D01*
X99000D02*
X99900D01*
X100900D02*
X101800D01*
X101900D02*
X102000D01*
X104300D02*
X104400D01*
X104500D02*
X105800D01*
X107200D02*
X108000D01*
X108800D02*
X111600D01*
X62400Y185400D02*
X68500D01*
X70500D02*
X76600D01*
X78400D02*
X78500D01*
X78600D02*
X84800D01*
X84900D02*
X85000D01*
X87300D02*
X88300D01*
X88400D02*
X88500D01*
X90800D02*
X90900D01*
X91000D02*
X92000D01*
X93000D02*
X94100D01*
X94200D02*
X94300D01*
X96400D02*
X96500D01*
X96700D02*
X97700D01*
X99000D02*
X99900D01*
X100900D02*
X101900D01*
X102000D02*
X102100D01*
X104400D02*
X105800D01*
X107200D02*
X108000D01*
X108800D02*
X111600D01*
X62500Y185300D02*
X68400D01*
X70600D02*
X76600D01*
X78500D02*
X78600D01*
X78700D02*
X84700D01*
X84800D02*
X84900D01*
X87300D02*
X88400D01*
X90900D02*
X91900D01*
X93100D02*
X94200D01*
X96600D02*
X97700D01*
X99000D02*
X99900D01*
X100900D02*
X102000D01*
X102100D02*
X102200D01*
X104300D02*
X105900D01*
X107200D02*
X108000D01*
X108800D02*
X111600D01*
X87400Y185200D02*
X88500D01*
X90800D02*
X91900D01*
X93200D02*
X94300D01*
X96100D02*
X96200D01*
X96400D02*
X97600D01*
X99000D02*
X99900D01*
X101000D02*
X102100D01*
X104100D02*
X105000D01*
X105100D02*
X105900D01*
X107200D02*
X108000D01*
X108800D02*
X111600D01*
X87500Y185100D02*
X88700D01*
X90600D02*
X91800D01*
X93200D02*
X94500D01*
X96200D02*
X97500D01*
X97600D02*
X97700D01*
X99000D02*
X99900D01*
X101000D02*
X102200D01*
X103900D02*
X104900D01*
X105100D02*
X106000D01*
X106400D02*
X106500D01*
X107200D02*
X108000D01*
X108800D02*
X111600D01*
X87500Y185000D02*
X89000D01*
X90300D02*
X91700D01*
X93300D02*
X94700D01*
X96000D02*
X97400D01*
X99000D02*
X99900D01*
X101100D02*
X102400D01*
X103600D02*
X104800D01*
X105100D02*
X106500D01*
X107200D02*
X108000D01*
X108800D02*
X111600D01*
X87600Y184900D02*
X91600D01*
X93400D02*
X97300D01*
X99000D02*
X99900D01*
X101200D02*
X104700D01*
X104900D02*
X105000D01*
X105100D02*
X106500D01*
X107200D02*
X108000D01*
X108800D02*
X111600D01*
X87700Y184800D02*
X91500D01*
X93600D02*
X97200D01*
X99000D02*
X99900D01*
X101200D02*
X104600D01*
X105100D02*
X106500D01*
X107200D02*
X108000D01*
X108800D02*
X111600D01*
X62500Y184700D02*
X68400D01*
X70700D02*
X76500D01*
X78800D02*
X84600D01*
X87800D02*
X91400D01*
X93700D02*
X97100D01*
X99000D02*
X99900D01*
X101300D02*
X104500D01*
X105200D02*
X106500D01*
X107200D02*
X108000D01*
X108800D02*
X111600D01*
X62400Y184600D02*
X68500D01*
X68600D02*
X68700D01*
X70600D02*
X76600D01*
X78700D02*
X84700D01*
X88000D02*
X91300D01*
X93800D02*
X96900D01*
X99000D02*
X99900D01*
X101400D02*
X104400D01*
X105300D02*
X106500D01*
X107200D02*
X108000D01*
X108800D02*
X111600D01*
X62100Y184500D02*
X62200D01*
X62300D02*
X68600D01*
X68700D02*
X68800D01*
X70500D02*
X76700D01*
X78600D02*
X84800D01*
X88200D02*
X91100D01*
X94000D02*
X96700D01*
X99000D02*
X99900D01*
X101600D02*
X104300D01*
X105400D02*
X106500D01*
X107200D02*
X108000D01*
X108800D02*
X111600D01*
X62000Y184400D02*
X62100D01*
X62200D02*
X68700D01*
X68800D02*
X68900D01*
X70400D02*
X76700D01*
X78500D02*
X84900D01*
X88400D02*
X90900D01*
X94200D02*
X96500D01*
X99000D02*
X99900D01*
X101800D02*
X104100D01*
X105500D02*
X106500D01*
X107200D02*
X108000D01*
X108800D02*
X111600D01*
X61900Y184300D02*
X62000D01*
X62100D02*
X68800D01*
X68900D02*
X69000D01*
X70300D02*
X76600D01*
X78400D02*
X85000D01*
X88600D02*
X90600D01*
X94500D02*
X96300D01*
X102000D02*
X103800D01*
X108800D02*
X111600D01*
X61800Y184200D02*
X61900D01*
X62000D02*
X68900D01*
X69000D02*
X69100D01*
X70200D02*
X76500D01*
X76600D02*
X76700D01*
X76800D02*
X77000D01*
X78300D02*
X85100D01*
X89200D02*
X90000D01*
X95000D02*
X95800D01*
X102500D02*
X103300D01*
X108800D02*
X111600D01*
X61900Y184100D02*
X62700D01*
X68200D02*
X69000D01*
X70100D02*
X70900D01*
X75600D02*
X76400D01*
X76500D02*
X76600D01*
X76700D02*
X77100D01*
X78200D02*
X85200D01*
X90300D02*
X90400D01*
X96000D02*
X96100D01*
X108800D02*
X111600D01*
X61800Y184000D02*
X62600D01*
X68300D02*
X69100D01*
X70000D02*
X70800D01*
X75500D02*
X76300D01*
X76400D02*
X76500D01*
X76600D02*
X77200D01*
X78100D02*
X85300D01*
X108800D02*
X111600D01*
X61700Y183900D02*
X62500D01*
X68400D02*
X69200D01*
X69900D02*
X70700D01*
X75400D02*
X76200D01*
X76300D02*
X76400D01*
X76500D02*
X77300D01*
X78000D02*
X85400D01*
X108800D02*
X111600D01*
X61700Y183800D02*
X62400D01*
X68500D02*
X69200D01*
X69900D02*
X70600D01*
X75300D02*
X76100D01*
X76200D02*
X76300D01*
X76400D02*
X77400D01*
X78000D02*
X85500D01*
X108800D02*
X111600D01*
X61700Y183700D02*
X62300D01*
X68600D02*
X69200D01*
X69900D02*
X70500D01*
X75200D02*
X76000D01*
X76100D02*
X76200D01*
X76300D02*
X77400D01*
X78000D02*
X85400D01*
X108800D02*
X111600D01*
X61700Y183600D02*
X62300D01*
X68600D02*
X69200D01*
X69900D02*
X70500D01*
X75100D02*
X75900D01*
X76000D02*
X76100D01*
X76200D02*
X77400D01*
X78000D02*
X85400D01*
X108800D02*
X111600D01*
X61700Y183500D02*
X62300D01*
X68600D02*
X69200D01*
X69900D02*
X70500D01*
X75000D02*
X75800D01*
X75900D02*
X76000D01*
X76100D02*
X77400D01*
X78000D02*
X85400D01*
X100900D02*
X101000D01*
X103400D02*
X103500D01*
X108800D02*
X111600D01*
X118100D02*
X118200D01*
X120200D02*
X120300D01*
X135500D02*
X135600D01*
X61700Y183400D02*
X62300D01*
X68600D02*
X69200D01*
X69900D02*
X70500D01*
X74900D02*
X75700D01*
X75800D02*
X75900D01*
X76000D02*
X77400D01*
X78000D02*
X85400D01*
X101300D02*
X103000D01*
X108800D02*
X111600D01*
X118500D02*
X119900D01*
X135900D02*
X137500D01*
X61700Y183300D02*
X62300D01*
X68600D02*
X69200D01*
X69900D02*
X70500D01*
X74800D02*
X75600D01*
X75700D02*
X75800D01*
X75900D02*
X77400D01*
X78000D02*
X85400D01*
X100600D02*
X103900D01*
X108800D02*
X111600D01*
X111700D02*
X111800D01*
X117800D02*
X120500D01*
X130500D02*
X131400D01*
X135200D02*
X138200D01*
X61700Y183200D02*
X62300D01*
X68600D02*
X69200D01*
X69900D02*
X70500D01*
X74700D02*
X75500D01*
X75600D02*
X75700D01*
X75800D02*
X77400D01*
X78000D02*
X85400D01*
X90400D02*
X91500D01*
X100200D02*
X104300D01*
X108800D02*
X111600D01*
X117500D02*
X120900D01*
X130100D02*
X131700D01*
X134800D02*
X138600D01*
X61700Y183100D02*
X62300D01*
X68600D02*
X69200D01*
X69900D02*
X70500D01*
X74600D02*
X75400D01*
X75500D02*
X75600D01*
X75700D02*
X77400D01*
X78000D02*
X85400D01*
X89800D02*
X92000D01*
X99800D02*
X104600D01*
X107100D02*
X113500D01*
X117200D02*
X121200D01*
X129800D02*
X131700D01*
X134400D02*
X139000D01*
X61700Y183000D02*
X62300D01*
X68600D02*
X69200D01*
X69900D02*
X70500D01*
X74500D02*
X75300D01*
X75400D02*
X75500D01*
X75600D02*
X77400D01*
X78000D02*
X85400D01*
X89500D02*
X92400D01*
X99600D02*
X104900D01*
X107100D02*
X113500D01*
X116900D02*
X121500D01*
X125300D02*
X127900D01*
X129600D02*
X131700D01*
X134200D02*
X139200D01*
X61700Y182900D02*
X62300D01*
X68600D02*
X69200D01*
X69900D02*
X70500D01*
X74400D02*
X75200D01*
X75300D02*
X75400D01*
X75500D02*
X77400D01*
X78000D02*
X85400D01*
X89300D02*
X92600D01*
X93800D02*
X96500D01*
X99400D02*
X105100D01*
X107100D02*
X113500D01*
X116700D02*
X121700D01*
X125300D02*
X127900D01*
X129400D02*
X131700D01*
X134000D02*
X139400D01*
X61700Y182800D02*
X62300D01*
X68600D02*
X69200D01*
X69900D02*
X70500D01*
X74300D02*
X75100D01*
X75200D02*
X75300D01*
X75400D02*
X77400D01*
X78000D02*
X85400D01*
X89100D02*
X92800D01*
X93800D02*
X96500D01*
X99200D02*
X105300D01*
X107100D02*
X113500D01*
X116500D02*
X121900D01*
X125300D02*
X127900D01*
X129200D02*
X131700D01*
X133500D02*
X133600D01*
X133800D02*
X139600D01*
X61700Y182700D02*
X62300D01*
X68600D02*
X69200D01*
X69900D02*
X70500D01*
X74200D02*
X75000D01*
X75100D02*
X75200D01*
X75300D02*
X77400D01*
X78000D02*
X85400D01*
X88900D02*
X93000D01*
X93800D02*
X96500D01*
X99000D02*
X105400D01*
X107100D02*
X113500D01*
X116300D02*
X122000D01*
X125300D02*
X127900D01*
X129100D02*
X131700D01*
X133600D02*
X139700D01*
X61700Y182600D02*
X62300D01*
X68600D02*
X69200D01*
X69900D02*
X70500D01*
X74100D02*
X74900D01*
X75000D02*
X75100D01*
X75200D02*
X77400D01*
X78000D02*
X85400D01*
X88700D02*
X93100D01*
X93800D02*
X96500D01*
X98800D02*
X105600D01*
X105700D02*
X105800D01*
X107100D02*
X113500D01*
X116200D02*
X122200D01*
X125300D02*
X127900D01*
X128900D02*
X131700D01*
X133500D02*
X139900D01*
X61700Y182500D02*
X62300D01*
X68600D02*
X69200D01*
X69900D02*
X70500D01*
X74000D02*
X74800D01*
X74900D02*
X75000D01*
X75100D02*
X77400D01*
X78000D02*
X85400D01*
X88600D02*
X93200D01*
X93800D02*
X96500D01*
X98700D02*
X105700D01*
X107100D02*
X113500D01*
X116000D02*
X122400D01*
X125300D02*
X127900D01*
X128800D02*
X131700D01*
X133400D02*
X140000D01*
X61700Y182400D02*
X62300D01*
X68600D02*
X69200D01*
X69900D02*
X70500D01*
X73900D02*
X74700D01*
X74800D02*
X74900D01*
X75000D02*
X77400D01*
X78000D02*
X85400D01*
X88200D02*
X88300D01*
X88400D02*
X93300D01*
X93800D02*
X96500D01*
X98600D02*
X105800D01*
X105900D02*
X106000D01*
X107100D02*
X113500D01*
X115900D02*
X122500D01*
X125300D02*
X127900D01*
X128700D02*
X131700D01*
X133300D02*
X140100D01*
X61700Y182300D02*
X62300D01*
X68600D02*
X69200D01*
X69900D02*
X70500D01*
X73800D02*
X74600D01*
X74700D02*
X74800D01*
X74900D02*
X77400D01*
X78000D02*
X85400D01*
X88300D02*
X93400D01*
X93800D02*
X96500D01*
X98500D02*
X105900D01*
X106000D02*
X106100D01*
X107100D02*
X113500D01*
X115800D02*
X122600D01*
X125300D02*
X127900D01*
X128600D02*
X131700D01*
X133200D02*
X140200D01*
X61700Y182200D02*
X62300D01*
X68600D02*
X69200D01*
X69900D02*
X70500D01*
X73700D02*
X74500D01*
X74600D02*
X74700D01*
X74800D02*
X77400D01*
X78000D02*
X85400D01*
X88200D02*
X93500D01*
X93600D02*
X93700D01*
X93800D02*
X96500D01*
X98400D02*
X106000D01*
X107100D02*
X113500D01*
X115700D02*
X122700D01*
X125300D02*
X127900D01*
X128500D02*
X131700D01*
X133100D02*
X140300D01*
X61700Y182100D02*
X62300D01*
X68600D02*
X69200D01*
X69900D02*
X70500D01*
X73600D02*
X74400D01*
X74500D02*
X74600D01*
X74700D02*
X77400D01*
X78000D02*
X85400D01*
X88100D02*
X93600D01*
X93800D02*
X96500D01*
X98300D02*
X106100D01*
X107100D02*
X113500D01*
X115600D02*
X122800D01*
X125300D02*
X127900D01*
X128400D02*
X131700D01*
X133000D02*
X140400D01*
X61700Y182000D02*
X62300D01*
X68600D02*
X69200D01*
X69900D02*
X70500D01*
X73500D02*
X74300D01*
X74400D02*
X74500D01*
X74600D02*
X77400D01*
X78000D02*
X85400D01*
X88000D02*
X93700D01*
X93800D02*
X96500D01*
X98200D02*
X106100D01*
X107100D02*
X113500D01*
X115500D02*
X122900D01*
X125300D02*
X127900D01*
X128100D02*
X128200D01*
X128300D02*
X131700D01*
X132900D02*
X140500D01*
X140600D02*
X140700D01*
X61700Y181900D02*
X62300D01*
X68600D02*
X69200D01*
X69900D02*
X70500D01*
X73400D02*
X74200D01*
X74300D02*
X74400D01*
X74500D02*
X77400D01*
X78000D02*
X85400D01*
X87700D02*
X87800D01*
X87900D02*
X93700D01*
X93800D02*
X96500D01*
X98100D02*
X106200D01*
X107100D02*
X113500D01*
X115400D02*
X123000D01*
X125300D02*
X127900D01*
X128200D02*
X131700D01*
X132800D02*
X140600D01*
X61700Y181800D02*
X62300D01*
X68600D02*
X69200D01*
X69900D02*
X70500D01*
X73300D02*
X74100D01*
X74200D02*
X74300D01*
X74400D02*
X77400D01*
X78000D02*
X85400D01*
X87800D02*
X96500D01*
X98000D02*
X106200D01*
X107100D02*
X113500D01*
X115300D02*
X123100D01*
X125300D02*
X127900D01*
X128200D02*
X131700D01*
X132800D02*
X140600D01*
X61700Y181700D02*
X62300D01*
X68600D02*
X69200D01*
X69900D02*
X70500D01*
X73200D02*
X74000D01*
X74100D02*
X74200D01*
X74300D02*
X77400D01*
X78000D02*
X85400D01*
X87700D02*
X96500D01*
X97900D02*
X106300D01*
X107100D02*
X113500D01*
X115200D02*
X123200D01*
X125300D02*
X127900D01*
X128100D02*
X131700D01*
X132700D02*
X140700D01*
X61700Y181600D02*
X62300D01*
X68600D02*
X69200D01*
X69900D02*
X70500D01*
X73100D02*
X73900D01*
X74000D02*
X74100D01*
X74200D02*
X77400D01*
X78000D02*
X85400D01*
X87700D02*
X96500D01*
X97900D02*
X106300D01*
X107100D02*
X113500D01*
X115100D02*
X123300D01*
X125300D02*
X127900D01*
X128000D02*
X131700D01*
X132700D02*
X140800D01*
X61700Y181500D02*
X62300D01*
X68600D02*
X69200D01*
X69900D02*
X70500D01*
X73000D02*
X73800D01*
X73900D02*
X74000D01*
X74100D02*
X77400D01*
X78000D02*
X85400D01*
X87600D02*
X96500D01*
X97800D02*
X101500D01*
X102600D02*
X106400D01*
X107100D02*
X113500D01*
X115000D02*
X123400D01*
X125300D02*
X127900D01*
X128000D02*
X131700D01*
X132600D02*
X136100D01*
X137100D02*
X140800D01*
X61700Y181400D02*
X62300D01*
X68600D02*
X69200D01*
X69900D02*
X70500D01*
X72900D02*
X73700D01*
X73800D02*
X73900D01*
X74000D02*
X77400D01*
X78000D02*
X85400D01*
X87500D02*
X96500D01*
X97800D02*
X101100D01*
X103000D02*
X106400D01*
X107100D02*
X113500D01*
X115000D02*
X123400D01*
X125300D02*
X131700D01*
X132600D02*
X135700D01*
X137600D02*
X140900D01*
X61700Y181300D02*
X62300D01*
X68600D02*
X69200D01*
X69900D02*
X70500D01*
X72800D02*
X73600D01*
X73700D02*
X73800D01*
X73900D02*
X77400D01*
X78000D02*
X85400D01*
X87500D02*
X96500D01*
X97700D02*
X100900D01*
X103200D02*
X106400D01*
X107100D02*
X113500D01*
X114900D02*
X118900D01*
X119500D02*
X123500D01*
X125300D02*
X131700D01*
X132500D02*
X135500D01*
X137800D02*
X140900D01*
X61700Y181200D02*
X62300D01*
X68600D02*
X69200D01*
X69900D02*
X70500D01*
X72700D02*
X73500D01*
X73600D02*
X73700D01*
X73800D02*
X77400D01*
X78000D02*
X85400D01*
X87400D02*
X96500D01*
X97700D02*
X100800D01*
X103100D02*
X103200D01*
X103400D02*
X106400D01*
X108800D02*
X111600D01*
X114800D02*
X118400D01*
X120000D02*
X123600D01*
X125300D02*
X131700D01*
X132500D02*
X135400D01*
X137700D02*
X137800D01*
X138000D02*
X140900D01*
X61700Y181100D02*
X62300D01*
X68600D02*
X69200D01*
X69900D02*
X70500D01*
X72600D02*
X73400D01*
X73500D02*
X73600D01*
X73700D02*
X77400D01*
X78000D02*
X85400D01*
X87300D02*
X91400D01*
X91800D02*
X96500D01*
X97600D02*
X100600D01*
X100800D02*
X100900D01*
X103200D02*
X103300D01*
X103400D02*
X106500D01*
X108800D02*
X111600D01*
X111700D02*
X111800D01*
X114800D02*
X118200D01*
X120200D02*
X123600D01*
X125300D02*
X131700D01*
X132500D02*
X135300D01*
X137900D02*
X138000D01*
X138100D02*
X141000D01*
X61700Y181000D02*
X62300D01*
X68600D02*
X69200D01*
X69900D02*
X70500D01*
X72500D02*
X73300D01*
X73400D02*
X73500D01*
X73600D02*
X77400D01*
X78000D02*
X85400D01*
X87300D02*
X90900D01*
X92400D02*
X96500D01*
X97600D02*
X100600D01*
X100700D02*
X100800D01*
X103300D02*
X103400D01*
X103500D02*
X106500D01*
X108800D02*
X111600D01*
X114700D02*
X118000D01*
X118200D02*
X118300D01*
X120400D02*
X123700D01*
X125300D02*
X131700D01*
X132500D02*
X135300D01*
X138000D02*
X138100D01*
X138200D02*
X141000D01*
X61700Y180900D02*
X62300D01*
X68600D02*
X69200D01*
X69900D02*
X70500D01*
X72400D02*
X73200D01*
X73300D02*
X73400D01*
X73500D02*
X77400D01*
X78000D02*
X85400D01*
X87200D02*
X90700D01*
X92600D02*
X96500D01*
X97600D02*
X100500D01*
X100600D02*
X100700D01*
X103600D02*
X106500D01*
X108800D02*
X111600D01*
X114700D02*
X117800D01*
X118000D02*
X118100D01*
X120500D02*
X123700D01*
X125300D02*
X131700D01*
X132500D02*
X135200D01*
X138300D02*
X141000D01*
X61700Y180800D02*
X62300D01*
X68600D02*
X69200D01*
X69900D02*
X70500D01*
X72300D02*
X73100D01*
X73200D02*
X73300D01*
X73400D02*
X77400D01*
X78000D02*
X85400D01*
X87000D02*
X87100D01*
X87200D02*
X90500D01*
X92800D02*
X96500D01*
X97600D02*
X100500D01*
X103600D02*
X106500D01*
X108800D02*
X111600D01*
X114600D02*
X117700D01*
X120400D02*
X120500D01*
X120700D02*
X123800D01*
X125300D02*
X131700D01*
X132400D02*
X135200D01*
X138300D02*
X141000D01*
X61700Y180700D02*
X62300D01*
X68600D02*
X69200D01*
X69900D02*
X70500D01*
X72200D02*
X73000D01*
X73100D02*
X73200D01*
X73300D02*
X77400D01*
X78000D02*
X85400D01*
X87100D02*
X90400D01*
X92700D02*
X92800D01*
X93000D02*
X96500D01*
X97500D02*
X100400D01*
X103600D02*
X106500D01*
X108800D02*
X111600D01*
X114600D02*
X117600D01*
X120800D02*
X123800D01*
X125300D02*
X130100D01*
X131300D02*
X131700D01*
X132400D02*
X135200D01*
X138300D02*
X141100D01*
X61700Y180600D02*
X62300D01*
X68600D02*
X69200D01*
X69900D02*
X70500D01*
X72100D02*
X72900D01*
X73000D02*
X73100D01*
X73200D02*
X77400D01*
X78000D02*
X85400D01*
X87100D02*
X90300D01*
X90400D02*
X90500D01*
X93100D02*
X96500D01*
X97500D02*
X100400D01*
X103700D02*
X106500D01*
X108800D02*
X111600D01*
X114500D02*
X117500D01*
X120900D02*
X123900D01*
X125300D02*
X129700D01*
X132400D02*
X135200D01*
X138400D02*
X141100D01*
X61700Y180500D02*
X62300D01*
X68600D02*
X69200D01*
X69900D02*
X70500D01*
X72000D02*
X72800D01*
X72900D02*
X73000D01*
X73100D02*
X77400D01*
X78000D02*
X85400D01*
X87100D02*
X90200D01*
X90300D02*
X90400D01*
X93200D02*
X96500D01*
X97500D02*
X100300D01*
X103700D02*
X106500D01*
X108800D02*
X111600D01*
X114500D02*
X117500D01*
X120900D02*
X123900D01*
X125300D02*
X129400D01*
X132400D02*
X135300D01*
X138400D02*
X141100D01*
X61700Y180400D02*
X62300D01*
X68600D02*
X69200D01*
X69900D02*
X70500D01*
X71900D02*
X72700D01*
X72800D02*
X72900D01*
X73000D02*
X77400D01*
X78000D02*
X85400D01*
X87000D02*
X90100D01*
X90200D02*
X90300D01*
X93300D02*
X96500D01*
X97500D02*
X100300D01*
X103700D02*
X106500D01*
X108800D02*
X111600D01*
X114400D02*
X117400D01*
X117500D02*
X117600D01*
X120800D02*
X120900D01*
X121000D02*
X124000D01*
X125300D02*
X129200D01*
X132400D02*
X135300D01*
X135400D02*
X135500D01*
X138400D02*
X141100D01*
X61700Y180300D02*
X62300D01*
X68600D02*
X69200D01*
X69900D02*
X70500D01*
X71800D02*
X72600D01*
X72700D02*
X72800D01*
X72900D02*
X77400D01*
X78000D02*
X85400D01*
X87000D02*
X90000D01*
X90100D02*
X90200D01*
X93300D02*
X96500D01*
X97500D02*
X100300D01*
X103700D02*
X106500D01*
X108800D02*
X111600D01*
X114400D02*
X117300D01*
X121100D02*
X124000D01*
X125300D02*
X129100D01*
X132400D02*
X135300D01*
X138400D02*
X141100D01*
X61700Y180200D02*
X62300D01*
X68600D02*
X69200D01*
X69900D02*
X70500D01*
X71700D02*
X72500D01*
X72600D02*
X72700D01*
X72800D02*
X77400D01*
X78000D02*
X85400D01*
X87000D02*
X89900D01*
X93200D02*
X93300D01*
X93400D02*
X96500D01*
X97500D02*
X100300D01*
X103700D02*
X106500D01*
X108800D02*
X111600D01*
X114400D02*
X117300D01*
X121100D02*
X124000D01*
X125300D02*
X128900D01*
X129100D02*
X129200D01*
X132400D02*
X135400D01*
X135600D02*
X135700D01*
X61700Y180100D02*
X62300D01*
X68600D02*
X69200D01*
X69900D02*
X70500D01*
X71600D02*
X72400D01*
X72500D02*
X72600D01*
X72700D02*
X77400D01*
X78000D02*
X85400D01*
X86900D02*
X89900D01*
X93400D02*
X96500D01*
X97500D02*
X100300D01*
X103700D02*
X106500D01*
X108800D02*
X111600D01*
X114300D02*
X117200D01*
X121200D02*
X124100D01*
X125300D02*
X128800D01*
X132400D02*
X135600D01*
X61700Y180000D02*
X62300D01*
X68600D02*
X69200D01*
X69900D02*
X70500D01*
X71500D02*
X72300D01*
X72400D02*
X72500D01*
X72600D02*
X77400D01*
X78000D02*
X85400D01*
X86900D02*
X89800D01*
X93500D02*
X96500D01*
X103600D02*
X106500D01*
X108800D02*
X111600D01*
X114300D02*
X117200D01*
X121200D02*
X124100D01*
X125300D02*
X128700D01*
X132400D02*
X135700D01*
X61700Y179900D02*
X62300D01*
X68600D02*
X69200D01*
X69900D02*
X70500D01*
X71400D02*
X72200D01*
X72300D02*
X72400D01*
X72500D02*
X77400D01*
X78000D02*
X85400D01*
X86900D02*
X89800D01*
X93500D02*
X96500D01*
X103400D02*
X103500D01*
X103600D02*
X106500D01*
X108800D02*
X111600D01*
X114300D02*
X117100D01*
X121300D02*
X124100D01*
X125300D02*
X128700D01*
X132400D02*
X135900D01*
X61700Y179800D02*
X62300D01*
X68600D02*
X69200D01*
X69900D02*
X70500D01*
X71300D02*
X72100D01*
X72400D02*
X77400D01*
X78000D02*
X85400D01*
X86900D02*
X89700D01*
X93600D02*
X96500D01*
X103300D02*
X103400D01*
X103500D02*
X106500D01*
X108800D02*
X111600D01*
X114200D02*
X117100D01*
X121300D02*
X124100D01*
X125300D02*
X128600D01*
X128700D02*
X128800D01*
X132500D02*
X136200D01*
X61700Y179700D02*
X62300D01*
X68600D02*
X69200D01*
X69900D02*
X70500D01*
X71200D02*
X72000D01*
X72300D02*
X77400D01*
X78000D02*
X85400D01*
X86800D02*
X89700D01*
X93600D02*
X96500D01*
X103400D02*
X106500D01*
X108800D02*
X111600D01*
X114200D02*
X117100D01*
X121300D02*
X124200D01*
X125300D02*
X128500D01*
X132500D02*
X136600D01*
X137200D02*
X137300D01*
X61700Y179600D02*
X62300D01*
X68700D02*
X69200D01*
X69900D02*
X70500D01*
X71100D02*
X71900D01*
X72200D02*
X77400D01*
X78000D02*
X85400D01*
X86800D02*
X89700D01*
X93700D02*
X96500D01*
X103300D02*
X106500D01*
X108800D02*
X111600D01*
X114200D02*
X117000D01*
X121400D02*
X124200D01*
X125300D02*
X128500D01*
X132500D02*
X137000D01*
X61700Y179500D02*
X62300D01*
X68600D02*
X69200D01*
X69900D02*
X70500D01*
X71000D02*
X71800D01*
X72100D02*
X77400D01*
X78000D02*
X85400D01*
X86800D02*
X89600D01*
X93700D02*
X96500D01*
X103000D02*
X106500D01*
X108800D02*
X111600D01*
X114200D02*
X117000D01*
X121400D02*
X124200D01*
X125300D02*
X128400D01*
X128500D02*
X128600D01*
X132500D02*
X137500D01*
X61700Y179400D02*
X62300D01*
X68600D02*
X69200D01*
X69900D02*
X70500D01*
X70900D02*
X71700D01*
X72000D02*
X77400D01*
X78000D02*
X85400D01*
X86800D02*
X89600D01*
X93700D02*
X96500D01*
X102700D02*
X106500D01*
X108800D02*
X111600D01*
X114200D02*
X117000D01*
X121200D02*
X121300D01*
X121400D02*
X124200D01*
X125300D02*
X128400D01*
X132600D02*
X138000D01*
X61700Y179300D02*
X62300D01*
X68600D02*
X69200D01*
X69900D02*
X70500D01*
X70800D02*
X71600D01*
X71900D02*
X77400D01*
X78000D02*
X85400D01*
X86800D02*
X89600D01*
X93700D02*
X96500D01*
X102200D02*
X106500D01*
X108800D02*
X111600D01*
X114100D02*
X117000D01*
X121400D02*
X124300D01*
X125300D02*
X128300D01*
X132600D02*
X138400D01*
X61700Y179200D02*
X62300D01*
X68600D02*
X69200D01*
X69900D02*
X70500D01*
X70700D02*
X71500D01*
X71800D02*
X77400D01*
X78000D02*
X85400D01*
X86700D02*
X89600D01*
X93700D02*
X96500D01*
X100200D02*
X100300D01*
X101300D02*
X106500D01*
X108800D02*
X111600D01*
X114100D02*
X117000D01*
X121400D02*
X124300D01*
X125300D02*
X128300D01*
X132700D02*
X138800D01*
X61700Y179100D02*
X62300D01*
X68600D02*
X69200D01*
X69900D02*
X70500D01*
X70600D02*
X71400D01*
X71700D02*
X77400D01*
X78000D02*
X85400D01*
X86700D02*
X89600D01*
X93800D02*
X96500D01*
X100500D02*
X106500D01*
X108800D02*
X111600D01*
X114100D02*
X117000D01*
X121400D02*
X124300D01*
X125300D02*
X128300D01*
X132700D02*
X139100D01*
X61700Y179000D02*
X62300D01*
X68600D02*
X69200D01*
X69900D02*
X71300D01*
X71600D02*
X77400D01*
X78000D02*
X85400D01*
X86700D02*
X89500D01*
X93800D02*
X96500D01*
X100000D02*
X106500D01*
X108800D02*
X111600D01*
X114100D02*
X116900D01*
X121500D02*
X124300D01*
X125300D02*
X128200D01*
X132800D02*
X139400D01*
X61700Y178900D02*
X62300D01*
X68600D02*
X69200D01*
X69900D02*
X71200D01*
X71500D02*
X77400D01*
X78000D02*
X85400D01*
X86700D02*
X89500D01*
X93800D02*
X96500D01*
X99500D02*
X106500D01*
X108800D02*
X111600D01*
X114100D02*
X116900D01*
X121500D02*
X124300D01*
X124400D02*
X124500D01*
X125300D02*
X128200D01*
X132900D02*
X139700D01*
X61700Y178800D02*
X62300D01*
X68600D02*
X69200D01*
X69900D02*
X71100D01*
X71400D02*
X77400D01*
X78000D02*
X85400D01*
X86700D02*
X89500D01*
X93800D02*
X96500D01*
X99200D02*
X106500D01*
X108800D02*
X111600D01*
X114100D02*
X116900D01*
X121500D02*
X124300D01*
X124400D02*
X124500D01*
X125300D02*
X128200D01*
X133000D02*
X139900D01*
X61700Y178700D02*
X62300D01*
X68600D02*
X69200D01*
X69900D02*
X71000D01*
X71300D02*
X77400D01*
X78000D02*
X85400D01*
X86700D02*
X89500D01*
X93800D02*
X96500D01*
X98900D02*
X106500D01*
X108800D02*
X111600D01*
X114100D02*
X116900D01*
X121500D02*
X124300D01*
X125300D02*
X128200D01*
X133100D02*
X140100D01*
X61700Y178600D02*
X62300D01*
X68600D02*
X69200D01*
X69900D02*
X70900D01*
X71200D02*
X77400D01*
X78000D02*
X85400D01*
X86700D02*
X89500D01*
X93800D02*
X96500D01*
X98700D02*
X106500D01*
X108800D02*
X111600D01*
X114100D02*
X116900D01*
X121500D02*
X124300D01*
X125300D02*
X128100D01*
X133200D02*
X140200D01*
X61700Y178500D02*
X62300D01*
X68600D02*
X69200D01*
X69900D02*
X70800D01*
X71100D02*
X77400D01*
X78000D02*
X85400D01*
X86700D02*
X89500D01*
X93800D02*
X96500D01*
X98500D02*
X106500D01*
X108800D02*
X111600D01*
X114100D02*
X116900D01*
X121500D02*
X124300D01*
X125300D02*
X128100D01*
X133300D02*
X140400D01*
X61700Y178400D02*
X62400D01*
X68500D02*
X69200D01*
X69900D02*
X70700D01*
X71000D02*
X77400D01*
X78000D02*
X85500D01*
X86700D02*
X89500D01*
X93800D02*
X96500D01*
X98300D02*
X106500D01*
X108800D02*
X111600D01*
X114100D02*
X116900D01*
X121500D02*
X124300D01*
X125300D02*
X128100D01*
X133500D02*
X140500D01*
X61700Y178300D02*
X62500D01*
X68400D02*
X69200D01*
X69900D02*
X70600D01*
X70900D02*
X77300D01*
X78000D02*
X85400D01*
X86700D02*
X89500D01*
X93800D02*
X96500D01*
X98200D02*
X106500D01*
X108800D02*
X111600D01*
X114100D02*
X116900D01*
X121500D02*
X124300D01*
X125300D02*
X128100D01*
X128200D02*
X128300D01*
X133600D02*
X140600D01*
X61800Y178200D02*
X62600D01*
X68300D02*
X69100D01*
X69900D02*
X70500D01*
X70800D02*
X77300D01*
X78000D02*
X85400D01*
X86700D02*
X89500D01*
X93800D02*
X96500D01*
X98100D02*
X106500D01*
X108800D02*
X111600D01*
X114100D02*
X116900D01*
X121500D02*
X124300D01*
X125300D02*
X128100D01*
X128200D02*
X128300D01*
X133800D02*
X140700D01*
X61900Y178100D02*
X62700D01*
X68200D02*
X69000D01*
X70000D02*
X70400D01*
X70700D02*
X77200D01*
X78100D02*
X85300D01*
X86700D02*
X89500D01*
X93800D02*
X96500D01*
X97900D02*
X106500D01*
X108800D02*
X111600D01*
X114100D02*
X116900D01*
X121500D02*
X124300D01*
X125300D02*
X128100D01*
X134000D02*
X140800D01*
X62000Y178000D02*
X68900D01*
X70100D02*
X70300D01*
X70600D02*
X77100D01*
X77200D02*
X77300D01*
X78000D02*
X78100D01*
X78200D02*
X85200D01*
X85300D02*
X85400D01*
X86700D02*
X89500D01*
X93800D02*
X96500D01*
X97800D02*
X103600D01*
X103700D02*
X106500D01*
X108800D02*
X111600D01*
X114100D02*
X116900D01*
X121500D02*
X124300D01*
X125300D02*
X128100D01*
X134300D02*
X140900D01*
X62100Y177900D02*
X68800D01*
X70500D02*
X77000D01*
X77100D02*
X77200D01*
X78100D02*
X78200D01*
X78300D02*
X85100D01*
X85200D02*
X85300D01*
X86700D02*
X89500D01*
X93800D02*
X96500D01*
X97800D02*
X103300D01*
X103700D02*
X106500D01*
X108800D02*
X111600D01*
X114100D02*
X116900D01*
X121500D02*
X124300D01*
X125300D02*
X128100D01*
X134600D02*
X141000D01*
X62200Y177800D02*
X68700D01*
X70400D02*
X76900D01*
X77000D02*
X77100D01*
X78200D02*
X78300D01*
X78400D02*
X85000D01*
X85100D02*
X85200D01*
X86700D02*
X89500D01*
X93800D02*
X96500D01*
X97700D02*
X103000D01*
X103700D02*
X106500D01*
X108800D02*
X111600D01*
X114100D02*
X116900D01*
X121500D02*
X124300D01*
X125300D02*
X128100D01*
X135000D02*
X141100D01*
X62300Y177700D02*
X68600D01*
X70400D02*
X76800D01*
X76900D02*
X77000D01*
X78300D02*
X78400D01*
X78500D02*
X84900D01*
X85000D02*
X85100D01*
X86700D02*
X89600D01*
X93800D02*
X96500D01*
X97600D02*
X102400D01*
X103700D02*
X106500D01*
X108800D02*
X111600D01*
X114100D02*
X116900D01*
X121500D02*
X124300D01*
X124400D02*
X124500D01*
X125300D02*
X128100D01*
X135300D02*
X141100D01*
X62400Y177600D02*
X68500D01*
X70500D02*
X76700D01*
X76800D02*
X76900D01*
X78400D02*
X78500D01*
X78600D02*
X84800D01*
X84900D02*
X85000D01*
X86700D02*
X89600D01*
X93800D02*
X96500D01*
X97500D02*
X101700D01*
X103700D02*
X106500D01*
X108800D02*
X111600D01*
X114100D02*
X116900D01*
X121500D02*
X124300D01*
X125300D02*
X128100D01*
X135800D02*
X141200D01*
X62500Y177500D02*
X68400D01*
X70400D02*
X70500D01*
X70600D02*
X76600D01*
X78700D02*
X84700D01*
X86700D02*
X89600D01*
X93800D02*
X96500D01*
X97500D02*
X101200D01*
X103700D02*
X106500D01*
X108800D02*
X111600D01*
X114100D02*
X116900D01*
X121400D02*
X124300D01*
X125300D02*
X128100D01*
X136200D02*
X141200D01*
X86800Y177400D02*
X89600D01*
X93700D02*
X96500D01*
X97400D02*
X100900D01*
X101300D02*
X101400D01*
X103700D02*
X106500D01*
X108800D02*
X111600D01*
X114100D02*
X117000D01*
X121400D02*
X124300D01*
X125300D02*
X128100D01*
X136000D02*
X136100D01*
X136600D02*
X141200D01*
X86800Y177300D02*
X89600D01*
X93700D02*
X96500D01*
X97400D02*
X100600D01*
X103700D02*
X106500D01*
X108800D02*
X111600D01*
X114100D02*
X117000D01*
X121400D02*
X124300D01*
X125300D02*
X128100D01*
X137000D02*
X141300D01*
X86800Y177200D02*
X89700D01*
X93700D02*
X96500D01*
X97300D02*
X100500D01*
X103700D02*
X106500D01*
X108800D02*
X111600D01*
X114200D02*
X117000D01*
X121200D02*
X121300D01*
X121400D02*
X124200D01*
X125300D02*
X128100D01*
X137400D02*
X141300D01*
X86800Y177100D02*
X89700D01*
X93700D02*
X96500D01*
X97300D02*
X100300D01*
X100500D02*
X100600D01*
X103700D02*
X106500D01*
X108800D02*
X111600D01*
X114200D02*
X117000D01*
X121400D02*
X124200D01*
X125300D02*
X128100D01*
X137700D02*
X141300D01*
X86800Y177000D02*
X89700D01*
X93600D02*
X96500D01*
X97300D02*
X100200D01*
X103700D02*
X106500D01*
X108800D02*
X111600D01*
X114200D02*
X117000D01*
X121400D02*
X124200D01*
X125300D02*
X128100D01*
X137900D02*
X141300D01*
X62500Y176900D02*
X68400D01*
X70600D02*
X76500D01*
X78800D02*
X84600D01*
X86800D02*
X89800D01*
X93600D02*
X96500D01*
X97200D02*
X100200D01*
X103700D02*
X106500D01*
X108800D02*
X111600D01*
X114200D02*
X117100D01*
X121300D02*
X124200D01*
X125300D02*
X128100D01*
X138100D02*
X141400D01*
X62200Y176800D02*
X62300D01*
X62400D02*
X68500D01*
X68600D02*
X68700D01*
X70300D02*
X70400D01*
X70500D02*
X76600D01*
X78700D02*
X84700D01*
X86900D02*
X89800D01*
X93500D02*
X96500D01*
X97200D02*
X100100D01*
X100200D02*
X100300D01*
X103600D02*
X106500D01*
X108800D02*
X111600D01*
X114200D02*
X117100D01*
X121300D02*
X124200D01*
X125300D02*
X128100D01*
X138000D02*
X138100D01*
X138300D02*
X141400D01*
X62100Y176700D02*
X62200D01*
X62300D02*
X68600D01*
X68700D02*
X68800D01*
X70200D02*
X70300D01*
X70400D02*
X76700D01*
X78600D02*
X84800D01*
X86900D02*
X89900D01*
X93500D02*
X96500D01*
X97200D02*
X100100D01*
X103600D02*
X106500D01*
X108800D02*
X111600D01*
X114300D02*
X117100D01*
X121300D02*
X124100D01*
X125300D02*
X128100D01*
X138400D02*
X141400D01*
X62000Y176600D02*
X62100D01*
X62200D02*
X68700D01*
X68800D02*
X68900D01*
X70100D02*
X70200D01*
X70300D02*
X76800D01*
X78500D02*
X84900D01*
X86900D02*
X89900D01*
X90000D02*
X90100D01*
X93400D02*
X96500D01*
X97000D02*
X97100D01*
X97200D02*
X100000D01*
X103600D02*
X106500D01*
X108800D02*
X111600D01*
X114300D02*
X117200D01*
X121200D02*
X124100D01*
X125300D02*
X128100D01*
X132200D02*
X134900D01*
X138500D02*
X141400D01*
X62100Y176500D02*
X68800D01*
X68900D02*
X69000D01*
X70200D02*
X76900D01*
X78400D02*
X85000D01*
X86900D02*
X90000D01*
X93400D02*
X96500D01*
X97200D02*
X100000D01*
X103600D02*
X106500D01*
X108800D02*
X111600D01*
X114300D02*
X117200D01*
X121200D02*
X124100D01*
X125300D02*
X128100D01*
X132200D02*
X134900D01*
X138300D02*
X138400D01*
X138500D02*
X141400D01*
X61800Y176400D02*
X61900D01*
X62000D02*
X68900D01*
X69000D02*
X69100D01*
X69900D02*
X70000D01*
X70100D02*
X77000D01*
X78300D02*
X85100D01*
X87000D02*
X90000D01*
X93100D02*
X93200D01*
X93300D02*
X96500D01*
X97200D02*
X100000D01*
X103600D02*
X106500D01*
X108800D02*
X111600D01*
X114400D02*
X117300D01*
X121100D02*
X124000D01*
X125300D02*
X128100D01*
X132200D02*
X134900D01*
X138500D02*
X141400D01*
X61900Y176300D02*
X69000D01*
X70000D02*
X77100D01*
X78200D02*
X85200D01*
X87000D02*
X90100D01*
X90200D02*
X90300D01*
X93000D02*
X93100D01*
X93200D02*
X96500D01*
X97200D02*
X100000D01*
X103600D02*
X106500D01*
X108800D02*
X111600D01*
X114400D02*
X117300D01*
X121100D02*
X124000D01*
X125300D02*
X128100D01*
X132200D02*
X134900D01*
X138600D02*
X141400D01*
X61800Y176200D02*
X69100D01*
X69900D02*
X77200D01*
X78100D02*
X85300D01*
X87000D02*
X90200D01*
X90300D02*
X90400D01*
X92900D02*
X93000D01*
X93100D02*
X96500D01*
X97200D02*
X100000D01*
X103500D02*
X106500D01*
X108800D02*
X111600D01*
X114400D02*
X117400D01*
X117500D02*
X117600D01*
X120800D02*
X120900D01*
X121000D02*
X124000D01*
X125300D02*
X128100D01*
X132200D02*
X134900D01*
X138600D02*
X141400D01*
X61700Y176100D02*
X69200D01*
X69900D02*
X77300D01*
X78000D02*
X85400D01*
X87100D02*
X90300D01*
X93000D02*
X96500D01*
X97200D02*
X100000D01*
X103500D02*
X106500D01*
X108800D02*
X111600D01*
X114500D02*
X117400D01*
X120900D02*
X123900D01*
X125300D02*
X128100D01*
X132200D02*
X134900D01*
X138500D02*
X141300D01*
X61700Y176000D02*
X69200D01*
X69800D02*
X77300D01*
X78000D02*
X85500D01*
X87100D02*
X90400D01*
X92900D02*
X96500D01*
X97200D02*
X100000D01*
X103400D02*
X106500D01*
X108800D02*
X111600D01*
X114500D02*
X117500D01*
X120900D02*
X123900D01*
X125300D02*
X128100D01*
X132200D02*
X135000D01*
X138500D02*
X141300D01*
X61700Y175900D02*
X69200D01*
X69800D02*
X77300D01*
X78000D02*
X85400D01*
X87100D02*
X90600D01*
X92700D02*
X96500D01*
X97200D02*
X100000D01*
X103400D02*
X106500D01*
X108800D02*
X111700D01*
X114600D02*
X117600D01*
X120800D02*
X123800D01*
X125300D02*
X128100D01*
X132300D02*
X135000D01*
X138500D02*
X141300D01*
X61700Y175800D02*
X69200D01*
X69800D02*
X77300D01*
X78000D02*
X85400D01*
X87200D02*
X90700D01*
X92500D02*
X96500D01*
X97200D02*
X100000D01*
X103100D02*
X103200D01*
X103300D02*
X106500D01*
X108800D02*
X111700D01*
X111800D02*
X111900D01*
X114600D02*
X117700D01*
X120700D02*
X123800D01*
X125300D02*
X128100D01*
X132300D02*
X135100D01*
X135200D02*
X135300D01*
X138500D02*
X141300D01*
X61700Y175700D02*
X69200D01*
X69800D02*
X77300D01*
X78000D02*
X85400D01*
X87200D02*
X91000D01*
X92200D02*
X96500D01*
X97000D02*
X97100D01*
X97200D02*
X100100D01*
X103000D02*
X103100D01*
X103200D02*
X106500D01*
X108800D02*
X111800D01*
X114700D02*
X117800D01*
X118000D02*
X118100D01*
X120300D02*
X120400D01*
X120600D02*
X123700D01*
X125300D02*
X128100D01*
X132300D02*
X135200D01*
X135300D02*
X135400D01*
X138200D02*
X138300D01*
X138400D02*
X141300D01*
X61700Y175600D02*
X69200D01*
X69800D02*
X77300D01*
X78000D02*
X85400D01*
X87300D02*
X96500D01*
X97000D02*
X97100D01*
X97200D02*
X100100D01*
X102900D02*
X103000D01*
X103200D02*
X106500D01*
X108800D02*
X112000D01*
X114700D02*
X118000D01*
X120400D02*
X123700D01*
X125300D02*
X128100D01*
X132300D02*
X135300D01*
X135400D02*
X135500D01*
X138100D02*
X138200D01*
X138300D02*
X141200D01*
X61700Y175500D02*
X69200D01*
X69800D02*
X77300D01*
X78000D02*
X85400D01*
X87300D02*
X96500D01*
X97200D02*
X100200D01*
X100300D02*
X100400D01*
X102800D02*
X102900D01*
X103000D02*
X106500D01*
X108800D02*
X113500D01*
X114800D02*
X118100D01*
X120200D02*
X123600D01*
X125300D02*
X128100D01*
X132400D02*
X135400D01*
X138000D02*
X138100D01*
X138300D02*
X141200D01*
X61700Y175400D02*
X69200D01*
X69800D02*
X77300D01*
X78000D02*
X85400D01*
X87400D02*
X96500D01*
X97200D02*
X100300D01*
X100500D02*
X100600D01*
X102600D02*
X102700D01*
X102900D02*
X106500D01*
X108800D02*
X113500D01*
X114800D02*
X118400D01*
X120000D02*
X123600D01*
X125300D02*
X128100D01*
X132400D02*
X135500D01*
X137800D02*
X137900D01*
X138100D02*
X141200D01*
X61700Y175300D02*
X69200D01*
X69800D02*
X77300D01*
X78000D02*
X85400D01*
X87400D02*
X96500D01*
X97300D02*
X100400D01*
X102800D02*
X106500D01*
X108800D02*
X113500D01*
X114900D02*
X118900D01*
X119500D02*
X123500D01*
X125300D02*
X128100D01*
X132500D02*
X135700D01*
X138000D02*
X141100D01*
X61700Y175200D02*
X69200D01*
X69800D02*
X77300D01*
X78000D02*
X85400D01*
X87500D02*
X96500D01*
X97300D02*
X100600D01*
X101400D02*
X101500D01*
X101600D02*
X101800D01*
X102500D02*
X106500D01*
X106600D02*
X106700D01*
X108800D02*
X113500D01*
X115000D02*
X123400D01*
X125300D02*
X128100D01*
X132500D02*
X135900D01*
X136700D02*
X136800D01*
X136900D02*
X137000D01*
X137700D02*
X141100D01*
X61700Y175100D02*
X69200D01*
X69800D02*
X77300D01*
X78000D02*
X85400D01*
X87600D02*
X96500D01*
X97300D02*
X101000D01*
X102100D02*
X106500D01*
X106600D02*
X106700D01*
X108800D02*
X113500D01*
X115000D02*
X123400D01*
X125300D02*
X128100D01*
X132600D02*
X136400D01*
X137300D02*
X141100D01*
X61700Y175000D02*
X69200D01*
X69800D02*
X77300D01*
X78000D02*
X85400D01*
X87700D02*
X96500D01*
X97400D02*
X106500D01*
X108800D02*
X113500D01*
X115100D02*
X123300D01*
X125300D02*
X128100D01*
X132600D02*
X141000D01*
X61700Y174900D02*
X69200D01*
X69800D02*
X77300D01*
X78000D02*
X85400D01*
X87700D02*
X96500D01*
X97400D02*
X106500D01*
X108800D02*
X113500D01*
X115200D02*
X123200D01*
X125300D02*
X128100D01*
X132700D02*
X140900D01*
X61700Y174800D02*
X69200D01*
X69800D02*
X77300D01*
X78000D02*
X85400D01*
X87800D02*
X96500D01*
X97400D02*
X106500D01*
X108900D02*
X113500D01*
X115300D02*
X123100D01*
X125300D02*
X128100D01*
X132800D02*
X140900D01*
X61700Y174700D02*
X69200D01*
X69800D02*
X77300D01*
X78000D02*
X85400D01*
X87700D02*
X87800D01*
X87900D02*
X93700D01*
X93800D02*
X96500D01*
X97500D02*
X106500D01*
X108900D02*
X113500D01*
X115400D02*
X123000D01*
X125300D02*
X128100D01*
X132800D02*
X140800D01*
X61700Y174600D02*
X69200D01*
X69800D02*
X77300D01*
X78000D02*
X85400D01*
X88000D02*
X93600D01*
X93800D02*
X96500D01*
X97500D02*
X106500D01*
X108900D02*
X113500D01*
X115500D02*
X122900D01*
X125300D02*
X128100D01*
X132900D02*
X140700D01*
X61700Y174500D02*
X69200D01*
X69800D02*
X77300D01*
X78000D02*
X85400D01*
X88100D02*
X93500D01*
X93800D02*
X96500D01*
X97600D02*
X106600D01*
X109000D02*
X113500D01*
X115600D02*
X122800D01*
X125300D02*
X128100D01*
X132800D02*
X132900D01*
X133000D02*
X140600D01*
X61700Y174400D02*
X69200D01*
X69800D02*
X77300D01*
X78000D02*
X85400D01*
X88200D02*
X93400D01*
X93600D02*
X93700D01*
X93800D02*
X96500D01*
X97700D02*
X106600D01*
X109100D02*
X113500D01*
X115700D02*
X122700D01*
X125300D02*
X128100D01*
X133100D02*
X140500D01*
X61700Y174300D02*
X69200D01*
X69800D02*
X77300D01*
X78000D02*
X85400D01*
X88100D02*
X88200D01*
X88300D02*
X93300D01*
X93800D02*
X96500D01*
X97700D02*
X106600D01*
X109100D02*
X113500D01*
X115800D02*
X122600D01*
X125300D02*
X128100D01*
X133000D02*
X133100D01*
X133200D02*
X140400D01*
X61700Y174200D02*
X69200D01*
X69800D02*
X77300D01*
X78000D02*
X85400D01*
X88500D02*
X93200D01*
X93800D02*
X96500D01*
X97800D02*
X103700D01*
X103800D02*
X106600D01*
X109200D02*
X113500D01*
X115900D02*
X122500D01*
X125300D02*
X128100D01*
X133300D02*
X140300D01*
X61700Y174100D02*
X69200D01*
X69800D02*
X77300D01*
X78000D02*
X85400D01*
X88600D02*
X93100D01*
X93800D02*
X96500D01*
X97900D02*
X103600D01*
X103800D02*
X106600D01*
X109300D02*
X113500D01*
X116000D02*
X122400D01*
X122500D02*
X122600D01*
X125300D02*
X128100D01*
X133200D02*
X133300D01*
X133400D02*
X140200D01*
X61700Y174000D02*
X69200D01*
X69800D02*
X77300D01*
X78000D02*
X85400D01*
X88800D02*
X92900D01*
X93800D02*
X96500D01*
X98000D02*
X103500D01*
X103600D02*
X103700D01*
X103800D02*
X106600D01*
X109400D02*
X113500D01*
X116200D02*
X122200D01*
X125300D02*
X128100D01*
X133600D02*
X140100D01*
X61700Y173900D02*
X69200D01*
X69800D02*
X77300D01*
X78000D02*
X85400D01*
X89000D02*
X92700D01*
X93800D02*
X96500D01*
X98200D02*
X103300D01*
X103900D02*
X106700D01*
X109500D02*
X113500D01*
X116300D02*
X122000D01*
X125300D02*
X128100D01*
X133700D02*
X139900D01*
X61700Y173800D02*
X69200D01*
X69800D02*
X77300D01*
X78000D02*
X85400D01*
X89200D02*
X92500D01*
X93800D02*
X96500D01*
X98300D02*
X103200D01*
X103900D02*
X106700D01*
X109600D02*
X113500D01*
X116500D02*
X121900D01*
X125300D02*
X128100D01*
X133600D02*
X133700D01*
X133900D02*
X139800D01*
X61700Y173700D02*
X69200D01*
X69800D02*
X77300D01*
X78000D02*
X85400D01*
X89500D02*
X92200D01*
X93800D02*
X96500D01*
X98400D02*
X103000D01*
X103900D02*
X106700D01*
X109800D02*
X113500D01*
X116700D02*
X121700D01*
X125300D02*
X128100D01*
X134100D02*
X139600D01*
X61700Y173600D02*
X69200D01*
X69800D02*
X77300D01*
X78000D02*
X85400D01*
X89800D02*
X91900D01*
X93800D02*
X96500D01*
X98600D02*
X102800D01*
X103900D02*
X106800D01*
X110000D02*
X113500D01*
X116900D02*
X121500D01*
X125300D02*
X128100D01*
X134300D02*
X139400D01*
X61700Y173500D02*
X69200D01*
X69800D02*
X77300D01*
X78000D02*
X85400D01*
X90700D02*
X91200D01*
X93800D02*
X96500D01*
X98800D02*
X102500D01*
X104000D02*
X106800D01*
X110300D02*
X113500D01*
X117200D02*
X121200D01*
X125300D02*
X128100D01*
X134600D02*
X139100D01*
X61700Y173400D02*
X69200D01*
X69800D02*
X77300D01*
X78000D02*
X85400D01*
X90100D02*
X90200D01*
X93800D02*
X96500D01*
X96600D02*
X96700D01*
X99100D02*
X102200D01*
X110800D02*
X113300D01*
X117500D02*
X120900D01*
X125300D02*
X128100D01*
X134900D02*
X138800D01*
X61700Y173300D02*
X69200D01*
X69800D02*
X77300D01*
X78000D02*
X85400D01*
X93800D02*
X96500D01*
X99400D02*
X101800D01*
X117900D02*
X120500D01*
X135400D02*
X138300D01*
X61700Y173200D02*
X69200D01*
X69800D02*
X77300D01*
X78000D02*
X85400D01*
X93800D02*
X96500D01*
X100100D02*
X101100D01*
X118700D02*
X119700D01*
X136300D02*
X137400D01*
X61700Y173100D02*
X69200D01*
X69800D02*
X77300D01*
X78000D02*
X85400D01*
X93800D02*
X96500D01*
X99700D02*
X99800D01*
X135800D02*
X135900D01*
X137800D02*
X137900D01*
X61700Y173000D02*
X69200D01*
X69800D02*
X77300D01*
X78000D02*
X85400D01*
X93800D02*
X96400D01*
X61700Y172900D02*
X69200D01*
X69800D02*
X77300D01*
X78000D02*
X85400D01*
X93700D02*
X96400D01*
X61700Y172800D02*
X69200D01*
X69800D02*
X77300D01*
X78000D02*
X85400D01*
X87100D02*
X89700D01*
X93700D02*
X96400D01*
X61700Y172700D02*
X69200D01*
X69800D02*
X77300D01*
X78000D02*
X85400D01*
X87000D02*
X89800D01*
X93700D02*
X96400D01*
X61700Y172600D02*
X69200D01*
X69800D02*
X77300D01*
X78000D02*
X85400D01*
X87000D02*
X89900D01*
X93600D02*
X96400D01*
X61700Y172500D02*
X69200D01*
X69800D02*
X77300D01*
X78000D02*
X85400D01*
X87000D02*
X89900D01*
X93400D02*
X93500D01*
X93600D02*
X96300D01*
X61700Y172400D02*
X69200D01*
X69800D02*
X77300D01*
X78000D02*
X85400D01*
X87000D02*
X89900D01*
X93500D02*
X96300D01*
X61700Y172300D02*
X69200D01*
X69800D02*
X77300D01*
X78000D02*
X85400D01*
X87100D02*
X90000D01*
X93500D02*
X96300D01*
X61700Y172200D02*
X69200D01*
X69800D02*
X77300D01*
X78000D02*
X85400D01*
X87100D02*
X90000D01*
X93200D02*
X93300D01*
X93400D02*
X96300D01*
X61700Y172100D02*
X69200D01*
X69800D02*
X77300D01*
X78000D02*
X85400D01*
X87100D02*
X90100D01*
X90200D02*
X90300D01*
X93100D02*
X93200D01*
X93300D02*
X96200D01*
X61700Y172000D02*
X69200D01*
X69800D02*
X77300D01*
X78000D02*
X85400D01*
X87100D02*
X90200D01*
X90300D02*
X90400D01*
X93000D02*
X93100D01*
X93200D02*
X96200D01*
X61700Y171900D02*
X69200D01*
X69800D02*
X77300D01*
X78000D02*
X85400D01*
X87200D02*
X90300D01*
X92900D02*
X93000D01*
X93100D02*
X96100D01*
X61700Y171800D02*
X69200D01*
X69800D02*
X77300D01*
X78000D02*
X85400D01*
X87200D02*
X90400D01*
X93000D02*
X96100D01*
X61700Y171700D02*
X69200D01*
X69800D02*
X77300D01*
X78000D02*
X85400D01*
X87300D02*
X90600D01*
X92800D02*
X96000D01*
X61700Y171600D02*
X69200D01*
X69800D02*
X77300D01*
X78000D02*
X85400D01*
X87300D02*
X90900D01*
X92600D02*
X96000D01*
X61700Y171500D02*
X69200D01*
X69800D02*
X77300D01*
X78000D02*
X85400D01*
X87400D02*
X91400D01*
X92100D02*
X95900D01*
X61700Y171400D02*
X69200D01*
X69800D02*
X77300D01*
X78000D02*
X85400D01*
X87400D02*
X95800D01*
X61700Y171300D02*
X69200D01*
X69800D02*
X77300D01*
X78000D02*
X85400D01*
X87500D02*
X95800D01*
X61700Y171200D02*
X69200D01*
X69800D02*
X77300D01*
X78000D02*
X85400D01*
X87600D02*
X95700D01*
X95800D02*
X95900D01*
X61700Y171100D02*
X69200D01*
X69800D02*
X77300D01*
X78000D02*
X85400D01*
X87600D02*
X95600D01*
X61700Y171000D02*
X69200D01*
X69800D02*
X77300D01*
X78000D02*
X85400D01*
X87700D02*
X95500D01*
X61700Y170900D02*
X69200D01*
X69800D02*
X77300D01*
X78000D02*
X85400D01*
X87800D02*
X95400D01*
X61700Y170800D02*
X69200D01*
X69800D02*
X77300D01*
X78000D02*
X85400D01*
X87700D02*
X87800D01*
X87900D02*
X95300D01*
X61700Y170700D02*
X69200D01*
X69800D02*
X77300D01*
X78000D02*
X85400D01*
X87800D02*
X87900D01*
X88000D02*
X95200D01*
X61700Y170600D02*
X69200D01*
X69800D02*
X77300D01*
X78000D02*
X85500D01*
X88100D02*
X95100D01*
X61700Y170500D02*
X69200D01*
X69800D02*
X77300D01*
X78000D02*
X85400D01*
X88300D02*
X94900D01*
X95100D02*
X95200D01*
X61800Y170400D02*
X69100D01*
X69900D02*
X77300D01*
X78000D02*
X85400D01*
X88400D02*
X94800D01*
X61900Y170300D02*
X69000D01*
X70000D02*
X77200D01*
X78100D02*
X85300D01*
X88600D02*
X94600D01*
X62000Y170200D02*
X68900D01*
X69900D02*
X70000D01*
X70100D02*
X77100D01*
X78000D02*
X78100D01*
X78200D02*
X85200D01*
X85300D02*
X85400D01*
X88800D02*
X94400D01*
X62100Y170100D02*
X68800D01*
X70200D02*
X77000D01*
X78100D02*
X78200D01*
X78300D02*
X85100D01*
X85200D02*
X85300D01*
X88900D02*
X94200D01*
X62200Y170000D02*
X68700D01*
X70100D02*
X70200D01*
X70300D02*
X76900D01*
X78200D02*
X78300D01*
X78400D02*
X85000D01*
X85100D02*
X85200D01*
X88800D02*
X88900D01*
X89200D02*
X94000D01*
X62300Y169900D02*
X68600D01*
X70400D02*
X76800D01*
X78300D02*
X78400D01*
X78500D02*
X84900D01*
X85000D02*
X85100D01*
X89400D02*
X93700D01*
X62400Y169800D02*
X68500D01*
X70300D02*
X70400D01*
X70500D02*
X76700D01*
X78400D02*
X78500D01*
X78600D02*
X84800D01*
X84900D02*
X85000D01*
X89800D02*
X93400D01*
X62500Y169700D02*
X68400D01*
X70600D02*
X76600D01*
X78700D02*
X84700D01*
X90200D02*
X92900D01*
X90900Y169600D02*
X92000D01*
D14*
X44500Y68744D02*
Y74256D01*
X49244Y87000D02*
X54756D01*
X35244Y86839D02*
X40756D01*
X72594Y52094D02*
Y88906D01*
Y52094D02*
X109406D01*
Y88906D01*
X72594D02*
X109406D01*
X138272Y72100D02*
X152272D01*
X141728Y92343D02*
X148815D01*
X47500Y7500D02*
X147500D01*
Y27500D01*
X47500D02*
X147500D01*
X47500Y7500D02*
Y27500D01*
X187791Y58319D02*
Y60681D01*
X199209D01*
Y58319D02*
Y60681D01*
X187791Y58319D02*
X199209D01*
X187594Y52217D02*
Y56941D01*
X194500Y109500D02*
X197500D01*
X194500Y89500D02*
Y109500D01*
Y89500D02*
X200500D01*
Y109500D01*
X197500D02*
X200500D01*
X197500Y88600D02*
Y89500D01*
Y109500D02*
Y110400D01*
D15*
X43168Y14500D02*
X46500D01*
X43168Y11168D01*
Y10335D01*
X44001Y9502D01*
X45667D01*
X46500Y10335D01*
X41502D02*
X40669Y9502D01*
X39002D01*
X38169Y10335D01*
Y13667D01*
X39002Y14500D01*
X40669D01*
X41502Y13667D01*
Y10335D01*
X46500Y24500D02*
X44834D01*
X45667D01*
Y19502D01*
X46500Y20335D01*
X42335D02*
X41502Y19502D01*
X39836D01*
X39002Y20335D01*
Y23667D01*
X39836Y24500D01*
X41502D01*
X42335Y23667D01*
Y20335D01*
X150500Y14500D02*
X148834D01*
X149667D01*
Y9502D01*
X150500Y10335D01*
X154500Y14500D02*
X152834D01*
X153667D01*
Y9502D01*
X154500Y10335D01*
X150500Y26500D02*
X148834D01*
X149667D01*
Y21502D01*
X150500Y22335D01*
M02*
