G04*
G04 #@! TF.GenerationSoftware,Altium Limited,Altium Designer,19.1.5 (86)*
G04*
G04 Layer_Color=255*
%FSLAX25Y25*%
%MOIN*%
G70*
G01*
G75*
%ADD37C,0.07874*%
%ADD38C,0.13000*%
%ADD39C,0.16500*%
%ADD40C,0.05906*%
%ADD41R,0.05906X0.05906*%
%ADD42C,0.05512*%
%ADD43C,0.07500*%
%ADD44C,0.08000*%
D37*
X107000Y155500D02*
D03*
X127000D02*
D03*
X117000D02*
D03*
X166500D02*
D03*
X176500D02*
D03*
X156500D02*
D03*
X116500Y119000D02*
D03*
X126500D02*
D03*
X106500D02*
D03*
X65500Y155500D02*
D03*
X75500D02*
D03*
X55500D02*
D03*
X167000Y119000D02*
D03*
X177000D02*
D03*
X157000D02*
D03*
X65000Y119500D02*
D03*
X75000D02*
D03*
X55000D02*
D03*
D38*
X168000Y10500D02*
D03*
X198000D02*
D03*
X183000D02*
D03*
D39*
X222000Y12500D02*
D03*
X11000D02*
D03*
X223000Y177000D02*
D03*
X12000Y179500D02*
D03*
D40*
X52500Y12500D02*
D03*
X62500D02*
D03*
X72500D02*
D03*
X82500D02*
D03*
X92500D02*
D03*
X102500D02*
D03*
X112500D02*
D03*
X122500D02*
D03*
X132500D02*
D03*
X142500D02*
D03*
X52500Y22500D02*
D03*
X62500D02*
D03*
X72500D02*
D03*
X82500D02*
D03*
X92500D02*
D03*
X102500D02*
D03*
X112500D02*
D03*
X122500D02*
D03*
X132500D02*
D03*
D41*
X142500D02*
D03*
D42*
X197500Y114500D02*
D03*
Y84500D02*
D03*
D43*
X214783Y35823D02*
D03*
Y153933D02*
D03*
X23717Y157055D02*
D03*
Y38945D02*
D03*
D44*
X222500Y142122D02*
D03*
Y130311D02*
D03*
Y118500D02*
D03*
Y106689D02*
D03*
Y94878D02*
D03*
Y83067D02*
D03*
Y71256D02*
D03*
Y59445D02*
D03*
Y47634D02*
D03*
X16000Y50756D02*
D03*
Y62567D02*
D03*
Y74378D02*
D03*
Y86189D02*
D03*
Y98000D02*
D03*
Y109811D02*
D03*
Y121622D02*
D03*
Y133433D02*
D03*
Y145244D02*
D03*
M02*
