G04*
G04 #@! TF.GenerationSoftware,Altium Limited,Altium Designer,19.1.5 (86)*
G04*
G04 Layer_Color=16711935*
%FSLAX25Y25*%
%MOIN*%
G70*
G01*
G75*
%ADD12C,0.00500*%
%ADD46C,0.00394*%
D12*
X137602Y73351D02*
G03*
X138099Y72854I500J4D01*
G01*
X152460D02*
G03*
X152957Y73351I-4J500D01*
G01*
X138099Y92146D02*
G03*
X137602Y91649I4J-500D01*
G01*
X147457Y79904D02*
G03*
X147457Y75204I0J-2350D01*
G01*
X152957Y91649D02*
G03*
X152460Y92146I-500J-4D01*
G01*
X147457Y75204D02*
G03*
X147457Y79904I0J2350D01*
G01*
X143980Y92146D02*
X144571D01*
X145988D02*
X146579D01*
X145988Y72854D02*
X146579D01*
X143980D02*
X144571D01*
X135936Y74252D02*
Y75748D01*
X137602Y74252D02*
Y75748D01*
X137432D02*
X137602D01*
X135094Y74252D02*
X135936D01*
X133468Y75748D02*
X135094D01*
X137432Y74252D02*
X137602D01*
X135936Y75748D02*
X137432D01*
X135936Y74252D02*
X137432D01*
X135094Y75748D02*
X135936D01*
X133468Y74252D02*
X135094D01*
X133468D02*
Y75748D01*
X135936Y79252D02*
Y80748D01*
X137602Y79252D02*
Y80748D01*
X137432D02*
X137602D01*
X135094Y79252D02*
X135936D01*
X133468Y80748D02*
X135094D01*
X137432Y79252D02*
X137602D01*
X135936Y80748D02*
X137432D01*
X135936Y79252D02*
X137432D01*
X135094Y80748D02*
X135936D01*
X133468Y79252D02*
X135094D01*
X133468D02*
Y80748D01*
X135936Y84252D02*
Y85748D01*
X137602Y84252D02*
Y85748D01*
X137432D02*
X137602D01*
X135094Y84252D02*
X135936D01*
X133468Y85748D02*
X135094D01*
X137432Y84252D02*
X137602D01*
X135936Y85748D02*
X137432D01*
X135936Y84252D02*
X137432D01*
X135094Y85748D02*
X135936D01*
X133468Y84252D02*
X135094D01*
X133468D02*
Y85748D01*
X135936Y89252D02*
Y90748D01*
X137602Y89252D02*
Y90748D01*
X137432D02*
X137602D01*
X135094Y89252D02*
X135936D01*
X133468Y90748D02*
X135094D01*
X137432Y89252D02*
X137602D01*
X135936Y90748D02*
X137432D01*
X135936Y89252D02*
X137432D01*
X135094Y90748D02*
X135936D01*
X133468Y89252D02*
X135094D01*
X133468D02*
Y90748D01*
X154623Y74252D02*
Y75748D01*
X152957Y74252D02*
Y75748D01*
Y74252D02*
X153127D01*
X154623Y75748D02*
X155465D01*
Y74252D02*
X157091D01*
X152957Y75748D02*
X153127D01*
Y74252D02*
X154623D01*
X153127Y75748D02*
X154623D01*
Y74252D02*
X155465D01*
Y75748D02*
X157091D01*
Y74252D02*
Y75748D01*
X154623Y79252D02*
Y80748D01*
X152957Y79252D02*
Y80748D01*
Y79252D02*
X153127D01*
X154623Y80748D02*
X155465D01*
Y79252D02*
X157091D01*
X152957Y80748D02*
X153127D01*
Y79252D02*
X154623D01*
X153127Y80748D02*
X154623D01*
Y79252D02*
X155465D01*
Y80748D02*
X157091D01*
Y79252D02*
Y80748D01*
X154623Y84252D02*
Y85748D01*
X152957Y84252D02*
Y85748D01*
Y84252D02*
X153127D01*
X154623Y85748D02*
X155465D01*
Y84252D02*
X157091D01*
X152957Y85748D02*
X153127D01*
Y84252D02*
X154623D01*
X153127Y85748D02*
X154623D01*
Y84252D02*
X155465D01*
Y85748D02*
X157091D01*
Y84252D02*
Y85748D01*
X154623Y89252D02*
Y90748D01*
X152957Y89252D02*
Y90748D01*
Y89252D02*
X153127D01*
X154623Y90748D02*
X155465D01*
Y89252D02*
X157091D01*
X152957Y90748D02*
X153127D01*
Y89252D02*
X154623D01*
X153127Y90748D02*
X154623D01*
Y89252D02*
X155465D01*
Y90748D02*
X157091D01*
Y89252D02*
Y90748D01*
X138099Y72854D02*
X138102D01*
X143980Y92146D02*
X144571D01*
X145988Y72854D02*
X146579D01*
X152957Y73354D02*
Y91646D01*
X137602Y73351D02*
Y73354D01*
X152957Y73351D02*
Y73354D01*
X143980Y72854D02*
X144571D01*
X137602Y73354D02*
Y91646D01*
X146579Y72854D02*
X152457D01*
X144571D02*
X145988D01*
X137602Y91646D02*
Y91649D01*
X138102Y72854D02*
X143980D01*
X152957Y91646D02*
Y91649D01*
X138102Y92146D02*
X143980D01*
X144571D02*
X145988D01*
X152457Y72854D02*
X152460D01*
X145988Y92146D02*
X146579D01*
X152457D01*
X152460D01*
X138099D02*
X138102D01*
D46*
X38201Y74650D02*
X50799D01*
Y68350D02*
Y74650D01*
X38201Y68350D02*
X50799D01*
X38201D02*
Y74650D01*
X48850Y80701D02*
Y93299D01*
X55150D01*
Y80701D02*
Y93299D01*
X48850Y80701D02*
X55150D01*
X34850Y80539D02*
Y93138D01*
X41150D01*
Y80539D02*
Y93138D01*
X34850Y80539D02*
X41150D01*
X71315Y88217D02*
X73283Y90185D01*
X71315Y50815D02*
Y90185D01*
Y50815D02*
X110685D01*
Y90185D01*
X71315D02*
X110685D01*
X187791Y56350D02*
Y62650D01*
X199209D01*
Y56350D02*
Y62650D01*
X187791Y56350D02*
X199209D01*
X187791Y60091D02*
X191532Y56350D01*
M02*
