G04*
G04 #@! TF.GenerationSoftware,Altium Limited,Altium Designer,19.1.5 (86)*
G04*
G04 Layer_Physical_Order=2*
G04 Layer_Color=16711680*
%FSLAX25Y25*%
%MOIN*%
G70*
G01*
G75*
%ADD10C,0.01000*%
%ADD37C,0.07874*%
%ADD38C,0.13000*%
%ADD39C,0.16500*%
%ADD40C,0.05906*%
%ADD41R,0.05906X0.05906*%
%ADD42C,0.05512*%
%ADD43C,0.07500*%
%ADD44C,0.08000*%
%ADD45C,0.05000*%
G36*
X234971Y1529D02*
X1529D01*
Y10133D01*
X2029Y10207D01*
X2413Y8943D01*
X3272Y7336D01*
X4428Y5928D01*
X5836Y4772D01*
X7443Y3913D01*
X9187Y3384D01*
X11000Y3205D01*
X12813Y3384D01*
X14557Y3913D01*
X16164Y4772D01*
X17572Y5928D01*
X18728Y7336D01*
X19587Y8943D01*
X20116Y10687D01*
X20295Y12500D01*
X20116Y14313D01*
X19587Y16057D01*
X18728Y17664D01*
X17572Y19072D01*
X16164Y20228D01*
X14557Y21087D01*
X12813Y21616D01*
X11000Y21795D01*
X9187Y21616D01*
X7443Y21087D01*
X5836Y20228D01*
X4428Y19072D01*
X3272Y17664D01*
X2413Y16057D01*
X2029Y14793D01*
X1529Y14867D01*
Y192971D01*
X234971D01*
Y1529D01*
D02*
G37*
%LPC*%
G36*
X12000Y188795D02*
X10187Y188616D01*
X8443Y188087D01*
X6836Y187228D01*
X5428Y186072D01*
X4272Y184664D01*
X3413Y183057D01*
X2884Y181313D01*
X2705Y179500D01*
X2884Y177687D01*
X3413Y175943D01*
X4272Y174336D01*
X5428Y172928D01*
X6836Y171772D01*
X8443Y170913D01*
X10187Y170384D01*
X12000Y170205D01*
X13813Y170384D01*
X15557Y170913D01*
X17164Y171772D01*
X18572Y172928D01*
X19728Y174336D01*
X20587Y175943D01*
X21116Y177687D01*
X21295Y179500D01*
X21116Y181313D01*
X20587Y183057D01*
X19728Y184664D01*
X18572Y186072D01*
X17164Y187228D01*
X15557Y188087D01*
X13813Y188616D01*
X12000Y188795D01*
D02*
G37*
G36*
X223000Y186295D02*
X221187Y186116D01*
X219443Y185587D01*
X217836Y184728D01*
X216428Y183572D01*
X215272Y182164D01*
X214413Y180557D01*
X213884Y178813D01*
X213705Y177000D01*
X213884Y175187D01*
X214413Y173443D01*
X215272Y171836D01*
X216428Y170428D01*
X217836Y169272D01*
X219443Y168413D01*
X221187Y167884D01*
X223000Y167705D01*
X224813Y167884D01*
X226557Y168413D01*
X228164Y169272D01*
X229572Y170428D01*
X230728Y171836D01*
X231587Y173443D01*
X232116Y175187D01*
X232295Y177000D01*
X232116Y178813D01*
X231587Y180557D01*
X230728Y182164D01*
X229572Y183572D01*
X228164Y184728D01*
X226557Y185587D01*
X224813Y186116D01*
X223000Y186295D01*
D02*
G37*
G36*
X154000Y169529D02*
X48304D01*
X47719Y169413D01*
X47223Y169081D01*
X30671Y152529D01*
X26443D01*
X26273Y153029D01*
X27104Y153667D01*
X27866Y154660D01*
X28344Y155815D01*
X28508Y157055D01*
X28344Y158295D01*
X27866Y159451D01*
X27104Y160443D01*
X26112Y161204D01*
X24957Y161683D01*
X23717Y161846D01*
X22477Y161683D01*
X21321Y161204D01*
X20329Y160443D01*
X19568Y159451D01*
X19089Y158295D01*
X18926Y157055D01*
X19089Y155815D01*
X19568Y154660D01*
X20329Y153667D01*
X21273Y152943D01*
X21279Y152745D01*
X21194Y152418D01*
X21171Y152413D01*
X20675Y152081D01*
X18297Y149704D01*
X17305Y150115D01*
X16000Y150287D01*
X14695Y150115D01*
X13478Y149611D01*
X12434Y148810D01*
X11632Y147766D01*
X11129Y146549D01*
X10957Y145244D01*
X11129Y143939D01*
X11632Y142722D01*
X12434Y141678D01*
X13478Y140876D01*
X14695Y140373D01*
X16000Y140201D01*
X17305Y140373D01*
X18522Y140876D01*
X19566Y141678D01*
X20368Y142722D01*
X20871Y143939D01*
X21043Y145244D01*
X20871Y146549D01*
X20460Y147541D01*
X22389Y149471D01*
X29221D01*
X29413Y149009D01*
X18297Y137893D01*
X17305Y138304D01*
X16000Y138476D01*
X14695Y138304D01*
X13478Y137801D01*
X12434Y136999D01*
X11632Y135955D01*
X11129Y134738D01*
X10957Y133433D01*
X11129Y132128D01*
X11632Y130911D01*
X12434Y129867D01*
X13478Y129066D01*
X14695Y128562D01*
X16000Y128390D01*
X17305Y128562D01*
X18522Y129066D01*
X19566Y129867D01*
X20368Y130911D01*
X20871Y132128D01*
X21043Y133433D01*
X20871Y134738D01*
X20460Y135730D01*
X46701Y161971D01*
X108367D01*
X112588Y157749D01*
X112271Y156983D01*
X111729D01*
X111312Y157990D01*
X110521Y159021D01*
X109490Y159812D01*
X108289Y160310D01*
X107000Y160480D01*
X105711Y160310D01*
X104510Y159812D01*
X103479Y159021D01*
X102688Y157990D01*
X102190Y156789D01*
X102020Y155500D01*
X102190Y154211D01*
X102688Y153010D01*
X103479Y151979D01*
X104510Y151188D01*
X105711Y150690D01*
X107000Y150520D01*
X108289Y150690D01*
X109490Y151188D01*
X110521Y151979D01*
X111312Y153010D01*
X111729Y154017D01*
X112271D01*
X112688Y153010D01*
X113479Y151979D01*
X114510Y151188D01*
X115711Y150690D01*
X117000Y150520D01*
X118289Y150690D01*
X119490Y151188D01*
X120521Y151979D01*
X121312Y153010D01*
X121729Y154017D01*
X122271D01*
X122687Y153010D01*
X123479Y151979D01*
X124510Y151188D01*
X125711Y150690D01*
X126500Y150586D01*
Y155500D01*
Y160414D01*
X125711Y160310D01*
X124510Y159812D01*
X123479Y159021D01*
X122687Y157990D01*
X122271Y156983D01*
X121729D01*
X121312Y157990D01*
X120521Y159021D01*
X119490Y159812D01*
X118289Y160310D01*
X117000Y160480D01*
X115711Y160310D01*
X114751Y159912D01*
X110081Y164581D01*
X109585Y164913D01*
X109000Y165029D01*
X48150D01*
X47958Y165491D01*
X48938Y166471D01*
X153366D01*
X162088Y157749D01*
X161771Y156983D01*
X161229D01*
X160812Y157990D01*
X160021Y159021D01*
X158990Y159812D01*
X157789Y160310D01*
X156500Y160480D01*
X155211Y160310D01*
X154010Y159812D01*
X152979Y159021D01*
X152188Y157990D01*
X151690Y156789D01*
X151520Y155500D01*
X151690Y154211D01*
X152188Y153010D01*
X152979Y151979D01*
X154010Y151188D01*
X155211Y150690D01*
X156500Y150520D01*
X157789Y150690D01*
X158990Y151188D01*
X160021Y151979D01*
X160812Y153010D01*
X161229Y154017D01*
X161771D01*
X162188Y153010D01*
X162979Y151979D01*
X164010Y151188D01*
X165211Y150690D01*
X166500Y150520D01*
X167789Y150690D01*
X168990Y151188D01*
X170021Y151979D01*
X170812Y153010D01*
X171229Y154017D01*
X171771D01*
X172187Y153010D01*
X172979Y151979D01*
X174010Y151188D01*
X175211Y150690D01*
X176000Y150586D01*
Y155500D01*
Y160414D01*
X175211Y160310D01*
X174010Y159812D01*
X172979Y159021D01*
X172187Y157990D01*
X171771Y156983D01*
X171229D01*
X170812Y157990D01*
X170021Y159021D01*
X168990Y159812D01*
X167789Y160310D01*
X166500Y160480D01*
X165211Y160310D01*
X164251Y159912D01*
X155081Y169081D01*
X154585Y169413D01*
X154000Y169529D01*
D02*
G37*
G36*
X65500Y160480D02*
X64211Y160310D01*
X63010Y159812D01*
X61979Y159021D01*
X61187Y157990D01*
X60771Y156983D01*
X60229D01*
X59812Y157990D01*
X59021Y159021D01*
X57990Y159812D01*
X56789Y160310D01*
X55500Y160480D01*
X54211Y160310D01*
X53010Y159812D01*
X51979Y159021D01*
X51187Y157990D01*
X50690Y156789D01*
X50520Y155500D01*
X50690Y154211D01*
X51187Y153010D01*
X51979Y151979D01*
X53010Y151188D01*
X54211Y150690D01*
X55500Y150520D01*
X56789Y150690D01*
X57990Y151188D01*
X59021Y151979D01*
X59812Y153010D01*
X60229Y154017D01*
X60771D01*
X61187Y153010D01*
X61979Y151979D01*
X63010Y151188D01*
X64211Y150690D01*
X65500Y150520D01*
X66789Y150690D01*
X67990Y151188D01*
X69021Y151979D01*
X69813Y153010D01*
X70229Y154017D01*
X70771D01*
X71188Y153010D01*
X71979Y151979D01*
X73010Y151188D01*
X74211Y150690D01*
X75000Y150586D01*
Y155500D01*
Y160414D01*
X74211Y160310D01*
X73010Y159812D01*
X71979Y159021D01*
X71188Y157990D01*
X70771Y156983D01*
X70229D01*
X69813Y157990D01*
X69021Y159021D01*
X67990Y159812D01*
X66789Y160310D01*
X65500Y160480D01*
D02*
G37*
G36*
X177000Y160414D02*
Y156000D01*
X181414D01*
X181310Y156789D01*
X180813Y157990D01*
X180021Y159021D01*
X178990Y159812D01*
X177789Y160310D01*
X177000Y160414D01*
D02*
G37*
G36*
X127500D02*
Y156000D01*
X131914D01*
X131810Y156789D01*
X131313Y157990D01*
X130521Y159021D01*
X129490Y159812D01*
X128289Y160310D01*
X127500Y160414D01*
D02*
G37*
G36*
X76000D02*
Y156000D01*
X80414D01*
X80310Y156789D01*
X79813Y157990D01*
X79021Y159021D01*
X77990Y159812D01*
X76789Y160310D01*
X76000Y160414D01*
D02*
G37*
G36*
X181414Y155000D02*
X177000D01*
Y150586D01*
X177789Y150690D01*
X178990Y151188D01*
X180021Y151979D01*
X180813Y153010D01*
X181310Y154211D01*
X181414Y155000D01*
D02*
G37*
G36*
X131914D02*
X127500D01*
Y150586D01*
X128289Y150690D01*
X129490Y151188D01*
X130521Y151979D01*
X131313Y153010D01*
X131810Y154211D01*
X131914Y155000D01*
D02*
G37*
G36*
X80414D02*
X76000D01*
Y150586D01*
X76789Y150690D01*
X77990Y151188D01*
X79021Y151979D01*
X79813Y153010D01*
X80310Y154211D01*
X80414Y155000D01*
D02*
G37*
G36*
X214783Y158724D02*
X213543Y158561D01*
X212388Y158082D01*
X211396Y157321D01*
X210634Y156328D01*
X210156Y155173D01*
X209992Y153933D01*
X210156Y152693D01*
X210634Y151538D01*
X211396Y150545D01*
X212388Y149784D01*
X213543Y149305D01*
X214783Y149142D01*
X216023Y149305D01*
X217179Y149784D01*
X218171Y150545D01*
X218933Y151538D01*
X219411Y152693D01*
X219574Y153933D01*
X219411Y155173D01*
X218933Y156328D01*
X218171Y157321D01*
X217179Y158082D01*
X216023Y158561D01*
X214783Y158724D01*
D02*
G37*
G36*
X222500Y147165D02*
X221195Y146993D01*
X219978Y146490D01*
X218934Y145688D01*
X218132Y144644D01*
X217629Y143427D01*
X217457Y142122D01*
X217629Y140817D01*
X218132Y139600D01*
X218934Y138556D01*
X219978Y137754D01*
X221195Y137251D01*
X222500Y137079D01*
X223805Y137251D01*
X225022Y137754D01*
X226066Y138556D01*
X226868Y139600D01*
X227371Y140817D01*
X227543Y142122D01*
X227371Y143427D01*
X226868Y144644D01*
X226066Y145688D01*
X225022Y146490D01*
X223805Y146993D01*
X222500Y147165D01*
D02*
G37*
G36*
Y135354D02*
X221195Y135182D01*
X219978Y134678D01*
X218934Y133877D01*
X218132Y132833D01*
X217629Y131616D01*
X217457Y130311D01*
X217629Y129006D01*
X218132Y127789D01*
X218934Y126745D01*
X219978Y125944D01*
X221195Y125440D01*
X222500Y125268D01*
X223805Y125440D01*
X225022Y125944D01*
X226066Y126745D01*
X226868Y127789D01*
X227371Y129006D01*
X227543Y130311D01*
X227371Y131616D01*
X226868Y132833D01*
X226066Y133877D01*
X225022Y134678D01*
X223805Y135182D01*
X222500Y135354D01*
D02*
G37*
G36*
X65000Y124480D02*
X63711Y124310D01*
X62510Y123812D01*
X61479Y123021D01*
X60688Y121990D01*
X60271Y120983D01*
X59729D01*
X59312Y121990D01*
X58521Y123021D01*
X57490Y123812D01*
X56289Y124310D01*
X55000Y124480D01*
X53711Y124310D01*
X52510Y123812D01*
X51479Y123021D01*
X50687Y121990D01*
X50190Y120789D01*
X50020Y119500D01*
X50190Y118211D01*
X50687Y117010D01*
X51479Y115979D01*
X52510Y115188D01*
X53711Y114690D01*
X55000Y114520D01*
X56289Y114690D01*
X57490Y115188D01*
X58521Y115979D01*
X59312Y117010D01*
X59729Y118017D01*
X60271D01*
X60688Y117010D01*
X61479Y115979D01*
X62510Y115188D01*
X63711Y114690D01*
X65000Y114520D01*
X66289Y114690D01*
X67490Y115188D01*
X68521Y115979D01*
X69313Y117010D01*
X69729Y118017D01*
X70271D01*
X70688Y117010D01*
X71479Y115979D01*
X72510Y115188D01*
X73711Y114690D01*
X74500Y114586D01*
Y119500D01*
Y124414D01*
X73711Y124310D01*
X72510Y123812D01*
X71479Y123021D01*
X70688Y121990D01*
X70271Y120983D01*
X69729D01*
X69313Y121990D01*
X68521Y123021D01*
X67490Y123812D01*
X66289Y124310D01*
X65000Y124480D01*
D02*
G37*
G36*
X116500Y123980D02*
X115211Y123810D01*
X114010Y123312D01*
X112979Y122521D01*
X112188Y121490D01*
X111771Y120483D01*
X111229D01*
X110812Y121490D01*
X110021Y122521D01*
X108990Y123312D01*
X107789Y123810D01*
X106500Y123980D01*
X105211Y123810D01*
X104010Y123312D01*
X102979Y122521D01*
X102188Y121490D01*
X101690Y120289D01*
X101520Y119000D01*
X101690Y117711D01*
X102188Y116510D01*
X102979Y115479D01*
X104010Y114688D01*
X105211Y114190D01*
X106500Y114020D01*
X107789Y114190D01*
X108990Y114688D01*
X110021Y115479D01*
X110812Y116510D01*
X111229Y117517D01*
X111771D01*
X112088Y116751D01*
X106677Y111340D01*
X20778D01*
X20368Y112333D01*
X19566Y113377D01*
X18522Y114179D01*
X17305Y114682D01*
X16000Y114854D01*
X14695Y114682D01*
X13478Y114179D01*
X12434Y113377D01*
X11632Y112333D01*
X11129Y111116D01*
X10957Y109811D01*
X11129Y108506D01*
X11632Y107289D01*
X12434Y106245D01*
X13478Y105444D01*
X14695Y104940D01*
X16000Y104768D01*
X17305Y104940D01*
X18522Y105444D01*
X19566Y106245D01*
X20368Y107289D01*
X20778Y108282D01*
X107311D01*
X107896Y108398D01*
X108392Y108730D01*
X114251Y114588D01*
X115211Y114190D01*
X116500Y114020D01*
X117789Y114190D01*
X118990Y114688D01*
X120021Y115479D01*
X120812Y116510D01*
X121229Y117517D01*
X121771D01*
X122187Y116510D01*
X122979Y115479D01*
X124010Y114688D01*
X125211Y114190D01*
X126000Y114086D01*
Y119000D01*
Y123914D01*
X125211Y123810D01*
X124010Y123312D01*
X122979Y122521D01*
X122187Y121490D01*
X121771Y120483D01*
X121229D01*
X120812Y121490D01*
X120021Y122521D01*
X118990Y123312D01*
X117789Y123810D01*
X116500Y123980D01*
D02*
G37*
G36*
X167000D02*
X165711Y123810D01*
X164510Y123312D01*
X163479Y122521D01*
X162688Y121490D01*
X162271Y120483D01*
X161729D01*
X161312Y121490D01*
X160521Y122521D01*
X159490Y123312D01*
X158289Y123810D01*
X157000Y123980D01*
X155711Y123810D01*
X154510Y123312D01*
X153479Y122521D01*
X152688Y121490D01*
X152190Y120289D01*
X152020Y119000D01*
X152190Y117711D01*
X152688Y116510D01*
X153479Y115479D01*
X154510Y114688D01*
X155711Y114190D01*
X157000Y114020D01*
X158289Y114190D01*
X159490Y114688D01*
X160521Y115479D01*
X161312Y116510D01*
X161729Y117517D01*
X162271D01*
X162588Y116751D01*
X145367Y99529D01*
X20778D01*
X20368Y100522D01*
X19566Y101566D01*
X18522Y102367D01*
X17305Y102871D01*
X16000Y103043D01*
X14695Y102871D01*
X13478Y102367D01*
X12434Y101566D01*
X11632Y100522D01*
X11129Y99305D01*
X10957Y98000D01*
X11129Y96695D01*
X11632Y95478D01*
X12434Y94434D01*
X13478Y93633D01*
X14695Y93129D01*
X16000Y92957D01*
X17305Y93129D01*
X18522Y93633D01*
X19566Y94434D01*
X20368Y95478D01*
X20778Y96471D01*
X146000D01*
X146585Y96587D01*
X147081Y96919D01*
X164751Y114588D01*
X165711Y114190D01*
X167000Y114020D01*
X168289Y114190D01*
X169490Y114688D01*
X170521Y115479D01*
X171312Y116510D01*
X171729Y117517D01*
X172271D01*
X172687Y116510D01*
X173479Y115479D01*
X174510Y114688D01*
X175711Y114190D01*
X176500Y114086D01*
Y119000D01*
Y123914D01*
X175711Y123810D01*
X174510Y123312D01*
X173479Y122521D01*
X172687Y121490D01*
X172271Y120483D01*
X171729D01*
X171312Y121490D01*
X170521Y122521D01*
X169490Y123312D01*
X168289Y123810D01*
X167000Y123980D01*
D02*
G37*
G36*
X75500Y124414D02*
Y120000D01*
X79914D01*
X79810Y120789D01*
X79312Y121990D01*
X78521Y123021D01*
X77490Y123812D01*
X76289Y124310D01*
X75500Y124414D01*
D02*
G37*
G36*
X177500Y123914D02*
Y119500D01*
X181914D01*
X181810Y120289D01*
X181313Y121490D01*
X180521Y122521D01*
X179490Y123312D01*
X178289Y123810D01*
X177500Y123914D01*
D02*
G37*
G36*
X127000D02*
Y119500D01*
X131414D01*
X131310Y120289D01*
X130813Y121490D01*
X130021Y122521D01*
X128990Y123312D01*
X127789Y123810D01*
X127000Y123914D01*
D02*
G37*
G36*
X223000Y123477D02*
Y119000D01*
X227477D01*
X227371Y119805D01*
X226868Y121022D01*
X226066Y122066D01*
X225022Y122868D01*
X223805Y123371D01*
X223000Y123477D01*
D02*
G37*
G36*
X222000D02*
X221195Y123371D01*
X219978Y122868D01*
X218934Y122066D01*
X218132Y121022D01*
X217629Y119805D01*
X217523Y119000D01*
X222000D01*
Y123477D01*
D02*
G37*
G36*
X16000Y126665D02*
X14695Y126493D01*
X13478Y125989D01*
X12434Y125188D01*
X11632Y124144D01*
X11129Y122927D01*
X10957Y121622D01*
X11129Y120317D01*
X11632Y119100D01*
X12434Y118056D01*
X13478Y117254D01*
X14695Y116751D01*
X16000Y116579D01*
X17305Y116751D01*
X18522Y117254D01*
X19566Y118056D01*
X20368Y119100D01*
X20871Y120317D01*
X21043Y121622D01*
X20871Y122927D01*
X20368Y124144D01*
X19566Y125188D01*
X18522Y125989D01*
X17305Y126493D01*
X16000Y126665D01*
D02*
G37*
G36*
X79914Y119000D02*
X75500D01*
Y114586D01*
X76289Y114690D01*
X77490Y115188D01*
X78521Y115979D01*
X79312Y117010D01*
X79810Y118211D01*
X79914Y119000D01*
D02*
G37*
G36*
X181914Y118500D02*
X177500D01*
Y114086D01*
X178289Y114190D01*
X179490Y114688D01*
X180521Y115479D01*
X181313Y116510D01*
X181810Y117711D01*
X181914Y118500D01*
D02*
G37*
G36*
X131414D02*
X127000D01*
Y114086D01*
X127789Y114190D01*
X128990Y114688D01*
X130021Y115479D01*
X130813Y116510D01*
X131310Y117711D01*
X131414Y118500D01*
D02*
G37*
G36*
X227477Y118000D02*
X223000D01*
Y113523D01*
X223805Y113629D01*
X225022Y114132D01*
X226066Y114934D01*
X226868Y115978D01*
X227371Y117195D01*
X227477Y118000D01*
D02*
G37*
G36*
X222000D02*
X217523D01*
X217629Y117195D01*
X218132Y115978D01*
X218934Y114934D01*
X219978Y114132D01*
X221195Y113629D01*
X222000Y113523D01*
Y118000D01*
D02*
G37*
G36*
X222500Y111732D02*
X221195Y111560D01*
X219978Y111056D01*
X218934Y110255D01*
X218132Y109211D01*
X217629Y107994D01*
X217457Y106689D01*
X217629Y105384D01*
X218132Y104167D01*
X218934Y103123D01*
X219978Y102322D01*
X221195Y101818D01*
X222500Y101646D01*
X223805Y101818D01*
X225022Y102322D01*
X226066Y103123D01*
X226868Y104167D01*
X227371Y105384D01*
X227543Y106689D01*
X227371Y107994D01*
X226868Y109211D01*
X226066Y110255D01*
X225022Y111056D01*
X223805Y111560D01*
X222500Y111732D01*
D02*
G37*
G36*
Y99921D02*
X221195Y99749D01*
X219978Y99246D01*
X218934Y98444D01*
X218132Y97400D01*
X217629Y96183D01*
X217457Y94878D01*
X217629Y93573D01*
X218132Y92356D01*
X218934Y91312D01*
X219978Y90510D01*
X221195Y90007D01*
X222500Y89835D01*
X223805Y90007D01*
X225022Y90510D01*
X226066Y91312D01*
X226868Y92356D01*
X227371Y93573D01*
X227543Y94878D01*
X227371Y96183D01*
X226868Y97400D01*
X226066Y98444D01*
X225022Y99246D01*
X223805Y99749D01*
X222500Y99921D01*
D02*
G37*
G36*
X81500Y89464D02*
Y86500D01*
X84464D01*
X84410Y86914D01*
X84057Y87765D01*
X83496Y88496D01*
X82765Y89057D01*
X81914Y89410D01*
X81500Y89464D01*
D02*
G37*
G36*
X80500D02*
X80086Y89410D01*
X79235Y89057D01*
X78504Y88496D01*
X77943Y87765D01*
X77590Y86914D01*
X77536Y86500D01*
X80500D01*
Y89464D01*
D02*
G37*
G36*
X84464Y85500D02*
X81500D01*
Y82536D01*
X81914Y82590D01*
X82765Y82943D01*
X83496Y83504D01*
X84057Y84235D01*
X84410Y85086D01*
X84464Y85500D01*
D02*
G37*
G36*
X80500D02*
X77536D01*
X77590Y85086D01*
X77943Y84235D01*
X78504Y83504D01*
X79235Y82943D01*
X80086Y82590D01*
X80500Y82536D01*
Y85500D01*
D02*
G37*
G36*
X16000Y91232D02*
X14695Y91060D01*
X13478Y90557D01*
X12434Y89755D01*
X11632Y88711D01*
X11129Y87494D01*
X10957Y86189D01*
X11129Y84884D01*
X11632Y83667D01*
X12434Y82623D01*
X13478Y81822D01*
X14695Y81318D01*
X16000Y81146D01*
X17305Y81318D01*
X18522Y81822D01*
X19566Y82623D01*
X20368Y83667D01*
X20871Y84884D01*
X21043Y86189D01*
X20871Y87494D01*
X20368Y88711D01*
X19566Y89755D01*
X18522Y90557D01*
X17305Y91060D01*
X16000Y91232D01*
D02*
G37*
G36*
X222500Y88110D02*
X221195Y87938D01*
X219978Y87435D01*
X218934Y86633D01*
X218132Y85589D01*
X217629Y84372D01*
X217457Y83067D01*
X217629Y81762D01*
X218132Y80545D01*
X218934Y79501D01*
X219978Y78699D01*
X221195Y78196D01*
X222500Y78024D01*
X223805Y78196D01*
X225022Y78699D01*
X226066Y79501D01*
X226868Y80545D01*
X227371Y81762D01*
X227543Y83067D01*
X227371Y84372D01*
X226868Y85589D01*
X226066Y86633D01*
X225022Y87435D01*
X223805Y87938D01*
X222500Y88110D01*
D02*
G37*
G36*
X16000Y79421D02*
X14695Y79249D01*
X13478Y78746D01*
X12434Y77944D01*
X11632Y76900D01*
X11129Y75683D01*
X10957Y74378D01*
X11129Y73073D01*
X11632Y71856D01*
X12434Y70812D01*
X13478Y70011D01*
X14695Y69507D01*
X16000Y69335D01*
X17305Y69507D01*
X18522Y70011D01*
X19566Y70812D01*
X20368Y71856D01*
X20871Y73073D01*
X21043Y74378D01*
X20871Y75683D01*
X20368Y76900D01*
X19566Y77944D01*
X18522Y78746D01*
X17305Y79249D01*
X16000Y79421D01*
D02*
G37*
G36*
X222500Y76299D02*
X221195Y76127D01*
X219978Y75624D01*
X218934Y74822D01*
X218132Y73778D01*
X217629Y72561D01*
X217457Y71256D01*
X217629Y69951D01*
X218132Y68734D01*
X218934Y67690D01*
X219978Y66888D01*
X221195Y66385D01*
X222500Y66213D01*
X223805Y66385D01*
X225022Y66888D01*
X226066Y67690D01*
X226868Y68734D01*
X227371Y69951D01*
X227543Y71256D01*
X227371Y72561D01*
X226868Y73778D01*
X226066Y74822D01*
X225022Y75624D01*
X223805Y76127D01*
X222500Y76299D01*
D02*
G37*
G36*
X16000Y67610D02*
X14695Y67438D01*
X13478Y66935D01*
X12434Y66133D01*
X11632Y65089D01*
X11129Y63872D01*
X10957Y62567D01*
X11129Y61262D01*
X11632Y60045D01*
X12434Y59001D01*
X13478Y58200D01*
X14695Y57696D01*
X16000Y57524D01*
X17305Y57696D01*
X18522Y58200D01*
X19566Y59001D01*
X20368Y60045D01*
X20871Y61262D01*
X21043Y62567D01*
X20871Y63872D01*
X20368Y65089D01*
X19566Y66133D01*
X18522Y66935D01*
X17305Y67438D01*
X16000Y67610D01*
D02*
G37*
G36*
X91500Y59964D02*
Y57000D01*
X94464D01*
X94410Y57414D01*
X94057Y58265D01*
X93496Y58996D01*
X92765Y59557D01*
X91914Y59910D01*
X91500Y59964D01*
D02*
G37*
G36*
X90500D02*
X90086Y59910D01*
X89235Y59557D01*
X88504Y58996D01*
X87943Y58265D01*
X87590Y57414D01*
X87536Y57000D01*
X90500D01*
Y59964D01*
D02*
G37*
G36*
X197500Y118288D02*
X196519Y118159D01*
X195606Y117781D01*
X194821Y117179D01*
X194219Y116394D01*
X193841Y115480D01*
X193712Y114500D01*
X193841Y113520D01*
X194219Y112606D01*
X194821Y111821D01*
X195606Y111219D01*
X196519Y110841D01*
X197500Y110712D01*
X198480Y110841D01*
X198845Y110992D01*
X212471Y97366D01*
Y68000D01*
X212587Y67415D01*
X212919Y66919D01*
X218056Y61781D01*
X217629Y60750D01*
X217457Y59445D01*
X217629Y58139D01*
X218132Y56923D01*
X218934Y55879D01*
X219978Y55077D01*
X221195Y54574D01*
X222500Y54402D01*
X223805Y54574D01*
X225022Y55077D01*
X226066Y55879D01*
X226868Y56923D01*
X227371Y58139D01*
X227543Y59445D01*
X227371Y60750D01*
X226868Y61966D01*
X226066Y63011D01*
X225022Y63812D01*
X223805Y64316D01*
X222500Y64488D01*
X221195Y64316D01*
X220242Y63921D01*
X215529Y68634D01*
Y98000D01*
X215413Y98585D01*
X215081Y99081D01*
X201008Y113155D01*
X201159Y113520D01*
X201288Y114500D01*
X201159Y115480D01*
X200781Y116394D01*
X200179Y117179D01*
X199394Y117781D01*
X198480Y118159D01*
X197500Y118288D01*
D02*
G37*
G36*
X94464Y56000D02*
X91500D01*
Y53036D01*
X91914Y53090D01*
X92765Y53443D01*
X93496Y54004D01*
X94057Y54735D01*
X94410Y55586D01*
X94464Y56000D01*
D02*
G37*
G36*
X90500D02*
X87536D01*
X87590Y55586D01*
X87943Y54735D01*
X88504Y54004D01*
X89235Y53443D01*
X90086Y53090D01*
X90500Y53036D01*
Y56000D01*
D02*
G37*
G36*
X16000Y55799D02*
X14695Y55627D01*
X13478Y55124D01*
X12434Y54322D01*
X11632Y53278D01*
X11129Y52061D01*
X10957Y50756D01*
X11129Y49451D01*
X11632Y48234D01*
X12434Y47190D01*
X13478Y46389D01*
X14695Y45885D01*
X16000Y45713D01*
X17305Y45885D01*
X18522Y46389D01*
X19566Y47190D01*
X20368Y48234D01*
X20871Y49451D01*
X21043Y50756D01*
X20871Y52061D01*
X20368Y53278D01*
X19566Y54322D01*
X18522Y55124D01*
X17305Y55627D01*
X16000Y55799D01*
D02*
G37*
G36*
X222500Y52677D02*
X221195Y52505D01*
X219978Y52001D01*
X218934Y51200D01*
X218132Y50155D01*
X217629Y48939D01*
X217457Y47634D01*
X217629Y46328D01*
X218132Y45112D01*
X218934Y44068D01*
X219978Y43266D01*
X221195Y42763D01*
X222500Y42591D01*
X223805Y42763D01*
X225022Y43266D01*
X226066Y44068D01*
X226868Y45112D01*
X227371Y46328D01*
X227543Y47634D01*
X227371Y48939D01*
X226868Y50155D01*
X226066Y51200D01*
X225022Y52001D01*
X223805Y52505D01*
X222500Y52677D01*
D02*
G37*
G36*
X23717Y43736D02*
X22477Y43573D01*
X21321Y43094D01*
X20329Y42333D01*
X19568Y41340D01*
X19089Y40185D01*
X18926Y38945D01*
X19089Y37705D01*
X19568Y36549D01*
X20329Y35557D01*
X21321Y34796D01*
X22477Y34317D01*
X23717Y34154D01*
X24957Y34317D01*
X26112Y34796D01*
X27104Y35557D01*
X27866Y36549D01*
X28344Y37705D01*
X28508Y38945D01*
X28344Y40185D01*
X27866Y41340D01*
X27104Y42333D01*
X26112Y43094D01*
X24957Y43573D01*
X23717Y43736D01*
D02*
G37*
G36*
X214783Y40614D02*
X213543Y40451D01*
X212388Y39972D01*
X211396Y39211D01*
X210634Y38218D01*
X210156Y37063D01*
X209992Y35823D01*
X210156Y34583D01*
X210634Y33427D01*
X211396Y32435D01*
X212388Y31674D01*
X213543Y31195D01*
X214783Y31032D01*
X216023Y31195D01*
X217179Y31674D01*
X218171Y32435D01*
X218933Y33427D01*
X219411Y34583D01*
X219574Y35823D01*
X219411Y37063D01*
X218933Y38218D01*
X218171Y39211D01*
X217179Y39972D01*
X216023Y40451D01*
X214783Y40614D01*
D02*
G37*
G36*
X83000Y26421D02*
Y23000D01*
X86421D01*
X86351Y23532D01*
X85953Y24493D01*
X85319Y25319D01*
X84493Y25953D01*
X83532Y26351D01*
X83000Y26421D01*
D02*
G37*
G36*
X63000D02*
Y23000D01*
X66421D01*
X66351Y23532D01*
X65953Y24493D01*
X65319Y25319D01*
X64493Y25953D01*
X63532Y26351D01*
X63000Y26421D01*
D02*
G37*
G36*
X133000D02*
Y23000D01*
X136421D01*
X136351Y23532D01*
X135953Y24493D01*
X135319Y25319D01*
X134493Y25953D01*
X133532Y26351D01*
X133000Y26421D01*
D02*
G37*
G36*
X123000D02*
Y23000D01*
X126421D01*
X126351Y23532D01*
X125953Y24493D01*
X125319Y25319D01*
X124493Y25953D01*
X123532Y26351D01*
X123000Y26421D01*
D02*
G37*
G36*
X93000D02*
Y23000D01*
X96421D01*
X96351Y23532D01*
X95953Y24493D01*
X95319Y25319D01*
X94493Y25953D01*
X93532Y26351D01*
X93000Y26421D01*
D02*
G37*
G36*
X53000D02*
Y23000D01*
X56421D01*
X56351Y23532D01*
X55953Y24493D01*
X55319Y25319D01*
X54493Y25953D01*
X53532Y26351D01*
X53000Y26421D01*
D02*
G37*
G36*
X82000D02*
X81468Y26351D01*
X80507Y25953D01*
X79681Y25319D01*
X79047Y24493D01*
X78649Y23532D01*
X78579Y23000D01*
X82000D01*
Y26421D01*
D02*
G37*
G36*
X62000D02*
X61468Y26351D01*
X60507Y25953D01*
X59681Y25319D01*
X59047Y24493D01*
X58649Y23532D01*
X58579Y23000D01*
X62000D01*
Y26421D01*
D02*
G37*
G36*
X132000D02*
X131468Y26351D01*
X130507Y25953D01*
X129681Y25319D01*
X129047Y24493D01*
X128649Y23532D01*
X128579Y23000D01*
X132000D01*
Y26421D01*
D02*
G37*
G36*
X122000D02*
X121468Y26351D01*
X120507Y25953D01*
X119681Y25319D01*
X119047Y24493D01*
X118649Y23532D01*
X118579Y23000D01*
X122000D01*
Y26421D01*
D02*
G37*
G36*
X92000D02*
X91468Y26351D01*
X90507Y25953D01*
X89681Y25319D01*
X89047Y24493D01*
X88649Y23532D01*
X88579Y23000D01*
X92000D01*
Y26421D01*
D02*
G37*
G36*
X52000D02*
X51468Y26351D01*
X50507Y25953D01*
X49681Y25319D01*
X49047Y24493D01*
X48649Y23532D01*
X48579Y23000D01*
X52000D01*
Y26421D01*
D02*
G37*
G36*
X66421Y22000D02*
X63000D01*
Y18579D01*
X63532Y18649D01*
X64493Y19047D01*
X65319Y19681D01*
X65953Y20507D01*
X66351Y21468D01*
X66421Y22000D01*
D02*
G37*
G36*
X56421D02*
X53000D01*
Y18579D01*
X53532Y18649D01*
X54493Y19047D01*
X55319Y19681D01*
X55953Y20507D01*
X56351Y21468D01*
X56421Y22000D01*
D02*
G37*
G36*
X136421D02*
X133000D01*
Y18579D01*
X133532Y18649D01*
X134493Y19047D01*
X135319Y19681D01*
X135953Y20507D01*
X136351Y21468D01*
X136421Y22000D01*
D02*
G37*
G36*
X126421D02*
X123000D01*
Y18579D01*
X123532Y18649D01*
X124493Y19047D01*
X125319Y19681D01*
X125953Y20507D01*
X126351Y21468D01*
X126421Y22000D01*
D02*
G37*
G36*
X96421D02*
X93000D01*
Y18579D01*
X93532Y18649D01*
X94493Y19047D01*
X95319Y19681D01*
X95953Y20507D01*
X96351Y21468D01*
X96421Y22000D01*
D02*
G37*
G36*
X86421D02*
X83000D01*
Y18579D01*
X83532Y18649D01*
X84493Y19047D01*
X85319Y19681D01*
X85953Y20507D01*
X86351Y21468D01*
X86421Y22000D01*
D02*
G37*
G36*
X62000D02*
X58579D01*
X58649Y21468D01*
X59047Y20507D01*
X59681Y19681D01*
X60507Y19047D01*
X61468Y18649D01*
X62000Y18579D01*
Y22000D01*
D02*
G37*
G36*
X52000D02*
X48579D01*
X48649Y21468D01*
X49047Y20507D01*
X49681Y19681D01*
X50507Y19047D01*
X51468Y18649D01*
X52000Y18579D01*
Y22000D01*
D02*
G37*
G36*
X132000D02*
X128579D01*
X128649Y21468D01*
X129047Y20507D01*
X129681Y19681D01*
X130507Y19047D01*
X131468Y18649D01*
X132000Y18579D01*
Y22000D01*
D02*
G37*
G36*
X122000D02*
X118579D01*
X118649Y21468D01*
X119047Y20507D01*
X119681Y19681D01*
X120507Y19047D01*
X121468Y18649D01*
X122000Y18579D01*
Y22000D01*
D02*
G37*
G36*
X92000D02*
X88579D01*
X88649Y21468D01*
X89047Y20507D01*
X89681Y19681D01*
X90507Y19047D01*
X91468Y18649D01*
X92000Y18579D01*
Y22000D01*
D02*
G37*
G36*
X82000D02*
X78579D01*
X78649Y21468D01*
X79047Y20507D01*
X79681Y19681D01*
X80507Y19047D01*
X81468Y18649D01*
X82000Y18579D01*
Y22000D01*
D02*
G37*
G36*
X146453Y26453D02*
X138547D01*
Y18547D01*
X146453D01*
Y26453D01*
D02*
G37*
G36*
X112500Y26487D02*
X111468Y26351D01*
X110507Y25953D01*
X109681Y25319D01*
X109047Y24493D01*
X108649Y23532D01*
X108513Y22500D01*
X108649Y21468D01*
X109047Y20507D01*
X109681Y19681D01*
X110507Y19047D01*
X111468Y18649D01*
X112500Y18513D01*
X113532Y18649D01*
X114493Y19047D01*
X115319Y19681D01*
X115953Y20507D01*
X116351Y21468D01*
X116487Y22500D01*
X116351Y23532D01*
X115953Y24493D01*
X115319Y25319D01*
X114493Y25953D01*
X113532Y26351D01*
X112500Y26487D01*
D02*
G37*
G36*
X102500D02*
X101468Y26351D01*
X100507Y25953D01*
X99681Y25319D01*
X99047Y24493D01*
X98649Y23532D01*
X98513Y22500D01*
X98649Y21468D01*
X99047Y20507D01*
X99681Y19681D01*
X100507Y19047D01*
X101468Y18649D01*
X102500Y18513D01*
X103532Y18649D01*
X104493Y19047D01*
X105319Y19681D01*
X105953Y20507D01*
X106351Y21468D01*
X106487Y22500D01*
X106351Y23532D01*
X105953Y24493D01*
X105319Y25319D01*
X104493Y25953D01*
X103532Y26351D01*
X102500Y26487D01*
D02*
G37*
G36*
X72500D02*
X71468Y26351D01*
X70507Y25953D01*
X69681Y25319D01*
X69047Y24493D01*
X68649Y23532D01*
X68513Y22500D01*
X68649Y21468D01*
X69047Y20507D01*
X69681Y19681D01*
X70507Y19047D01*
X71468Y18649D01*
X72500Y18513D01*
X73532Y18649D01*
X74493Y19047D01*
X75319Y19681D01*
X75953Y20507D01*
X76351Y21468D01*
X76487Y22500D01*
X76351Y23532D01*
X75953Y24493D01*
X75319Y25319D01*
X74493Y25953D01*
X73532Y26351D01*
X72500Y26487D01*
D02*
G37*
G36*
X197500Y88288D02*
X196519Y88159D01*
X195606Y87781D01*
X194821Y87179D01*
X194219Y86394D01*
X193841Y85480D01*
X193712Y84500D01*
X193841Y83520D01*
X194219Y82606D01*
X194821Y81821D01*
X195606Y81219D01*
X195971Y81068D01*
Y40633D01*
X172132Y16795D01*
X170884Y17463D01*
X169470Y17891D01*
X168000Y18036D01*
X166530Y17891D01*
X165116Y17463D01*
X163813Y16766D01*
X162671Y15829D01*
X161734Y14687D01*
X161037Y13384D01*
X160608Y11970D01*
X160464Y10500D01*
X160608Y9030D01*
X161037Y7616D01*
X161734Y6313D01*
X162671Y5171D01*
X163813Y4234D01*
X165116Y3537D01*
X166530Y3108D01*
X168000Y2964D01*
X169470Y3108D01*
X170884Y3537D01*
X172187Y4234D01*
X173329Y5171D01*
X174266Y6313D01*
X174963Y7616D01*
X175239Y8526D01*
X175761D01*
X176037Y7616D01*
X176734Y6313D01*
X177671Y5171D01*
X178813Y4234D01*
X180116Y3537D01*
X181530Y3108D01*
X183000Y2964D01*
X184470Y3108D01*
X185884Y3537D01*
X187187Y4234D01*
X188329Y5171D01*
X189266Y6313D01*
X189963Y7616D01*
X190239Y8526D01*
X190761D01*
X191037Y7616D01*
X191734Y6313D01*
X192671Y5171D01*
X193813Y4234D01*
X195116Y3537D01*
X196530Y3108D01*
X197500Y3013D01*
Y10500D01*
Y17987D01*
X196530Y17891D01*
X195116Y17463D01*
X193813Y16766D01*
X192671Y15829D01*
X191734Y14687D01*
X191037Y13384D01*
X190761Y12474D01*
X190239D01*
X189963Y13384D01*
X189266Y14687D01*
X188329Y15829D01*
X187187Y16766D01*
X185884Y17463D01*
X184470Y17891D01*
X183000Y18036D01*
X181530Y17891D01*
X180116Y17463D01*
X178813Y16766D01*
X177671Y15829D01*
X176734Y14687D01*
X176037Y13384D01*
X175761Y12474D01*
X175239D01*
X174963Y13384D01*
X174295Y14633D01*
X198581Y38919D01*
X198913Y39415D01*
X199029Y40000D01*
Y81068D01*
X199394Y81219D01*
X200179Y81821D01*
X200781Y82606D01*
X201159Y83520D01*
X201288Y84500D01*
X201159Y85480D01*
X200781Y86394D01*
X200179Y87179D01*
X199394Y87781D01*
X198480Y88159D01*
X197500Y88288D01*
D02*
G37*
G36*
X83000Y16421D02*
Y13000D01*
X86421D01*
X86351Y13532D01*
X85953Y14493D01*
X85319Y15319D01*
X84493Y15953D01*
X83532Y16351D01*
X83000Y16421D01*
D02*
G37*
G36*
X63000D02*
Y13000D01*
X66421D01*
X66351Y13532D01*
X65953Y14493D01*
X65319Y15319D01*
X64493Y15953D01*
X63532Y16351D01*
X63000Y16421D01*
D02*
G37*
G36*
X133000D02*
Y13000D01*
X136421D01*
X136351Y13532D01*
X135953Y14493D01*
X135319Y15319D01*
X134493Y15953D01*
X133532Y16351D01*
X133000Y16421D01*
D02*
G37*
G36*
X123000D02*
Y13000D01*
X126421D01*
X126351Y13532D01*
X125953Y14493D01*
X125319Y15319D01*
X124493Y15953D01*
X123532Y16351D01*
X123000Y16421D01*
D02*
G37*
G36*
X113000D02*
Y13000D01*
X116421D01*
X116351Y13532D01*
X115953Y14493D01*
X115319Y15319D01*
X114493Y15953D01*
X113532Y16351D01*
X113000Y16421D01*
D02*
G37*
G36*
X103000D02*
Y13000D01*
X106421D01*
X106351Y13532D01*
X105953Y14493D01*
X105319Y15319D01*
X104493Y15953D01*
X103532Y16351D01*
X103000Y16421D01*
D02*
G37*
G36*
X93000D02*
Y13000D01*
X96421D01*
X96351Y13532D01*
X95953Y14493D01*
X95319Y15319D01*
X94493Y15953D01*
X93532Y16351D01*
X93000Y16421D01*
D02*
G37*
G36*
X73000D02*
Y13000D01*
X76421D01*
X76351Y13532D01*
X75953Y14493D01*
X75319Y15319D01*
X74493Y15953D01*
X73532Y16351D01*
X73000Y16421D01*
D02*
G37*
G36*
X53000D02*
Y13000D01*
X56421D01*
X56351Y13532D01*
X55953Y14493D01*
X55319Y15319D01*
X54493Y15953D01*
X53532Y16351D01*
X53000Y16421D01*
D02*
G37*
G36*
X62000D02*
X61468Y16351D01*
X60507Y15953D01*
X59681Y15319D01*
X59047Y14493D01*
X58649Y13532D01*
X58579Y13000D01*
X62000D01*
Y16421D01*
D02*
G37*
G36*
X82000D02*
X81468Y16351D01*
X80507Y15953D01*
X79681Y15319D01*
X79047Y14493D01*
X78649Y13532D01*
X78579Y13000D01*
X82000D01*
Y16421D01*
D02*
G37*
G36*
X132000D02*
X131468Y16351D01*
X130507Y15953D01*
X129681Y15319D01*
X129047Y14493D01*
X128649Y13532D01*
X128579Y13000D01*
X132000D01*
Y16421D01*
D02*
G37*
G36*
X122000D02*
X121468Y16351D01*
X120507Y15953D01*
X119681Y15319D01*
X119047Y14493D01*
X118649Y13532D01*
X118579Y13000D01*
X122000D01*
Y16421D01*
D02*
G37*
G36*
X112000D02*
X111468Y16351D01*
X110507Y15953D01*
X109681Y15319D01*
X109047Y14493D01*
X108649Y13532D01*
X108579Y13000D01*
X112000D01*
Y16421D01*
D02*
G37*
G36*
X102000D02*
X101468Y16351D01*
X100507Y15953D01*
X99681Y15319D01*
X99047Y14493D01*
X98649Y13532D01*
X98579Y13000D01*
X102000D01*
Y16421D01*
D02*
G37*
G36*
X92000D02*
X91468Y16351D01*
X90507Y15953D01*
X89681Y15319D01*
X89047Y14493D01*
X88649Y13532D01*
X88579Y13000D01*
X92000D01*
Y16421D01*
D02*
G37*
G36*
X52000D02*
X51468Y16351D01*
X50507Y15953D01*
X49681Y15319D01*
X49047Y14493D01*
X48649Y13532D01*
X48579Y13000D01*
X52000D01*
Y16421D01*
D02*
G37*
G36*
X72000D02*
X71468Y16351D01*
X70507Y15953D01*
X69681Y15319D01*
X69047Y14493D01*
X68649Y13532D01*
X68579Y13000D01*
X72000D01*
Y16421D01*
D02*
G37*
G36*
X198500Y17987D02*
Y11000D01*
X205487D01*
X205392Y11970D01*
X204963Y13384D01*
X204266Y14687D01*
X203329Y15829D01*
X202187Y16766D01*
X200884Y17463D01*
X199470Y17891D01*
X198500Y17987D01*
D02*
G37*
G36*
X136421Y12000D02*
X133000D01*
Y8579D01*
X133532Y8649D01*
X134493Y9047D01*
X135319Y9681D01*
X135953Y10507D01*
X136351Y11468D01*
X136421Y12000D01*
D02*
G37*
G36*
X126421D02*
X123000D01*
Y8579D01*
X123532Y8649D01*
X124493Y9047D01*
X125319Y9681D01*
X125953Y10507D01*
X126351Y11468D01*
X126421Y12000D01*
D02*
G37*
G36*
X116421D02*
X113000D01*
Y8579D01*
X113532Y8649D01*
X114493Y9047D01*
X115319Y9681D01*
X115953Y10507D01*
X116351Y11468D01*
X116421Y12000D01*
D02*
G37*
G36*
X106421D02*
X103000D01*
Y8579D01*
X103532Y8649D01*
X104493Y9047D01*
X105319Y9681D01*
X105953Y10507D01*
X106351Y11468D01*
X106421Y12000D01*
D02*
G37*
G36*
X96421D02*
X93000D01*
Y8579D01*
X93532Y8649D01*
X94493Y9047D01*
X95319Y9681D01*
X95953Y10507D01*
X96351Y11468D01*
X96421Y12000D01*
D02*
G37*
G36*
X86421D02*
X83000D01*
Y8579D01*
X83532Y8649D01*
X84493Y9047D01*
X85319Y9681D01*
X85953Y10507D01*
X86351Y11468D01*
X86421Y12000D01*
D02*
G37*
G36*
X76421D02*
X73000D01*
Y8579D01*
X73532Y8649D01*
X74493Y9047D01*
X75319Y9681D01*
X75953Y10507D01*
X76351Y11468D01*
X76421Y12000D01*
D02*
G37*
G36*
X66421D02*
X63000D01*
Y8579D01*
X63532Y8649D01*
X64493Y9047D01*
X65319Y9681D01*
X65953Y10507D01*
X66351Y11468D01*
X66421Y12000D01*
D02*
G37*
G36*
X56421D02*
X53000D01*
Y8579D01*
X53532Y8649D01*
X54493Y9047D01*
X55319Y9681D01*
X55953Y10507D01*
X56351Y11468D01*
X56421Y12000D01*
D02*
G37*
G36*
X62000D02*
X58579D01*
X58649Y11468D01*
X59047Y10507D01*
X59681Y9681D01*
X60507Y9047D01*
X61468Y8649D01*
X62000Y8579D01*
Y12000D01*
D02*
G37*
G36*
X52000D02*
X48579D01*
X48649Y11468D01*
X49047Y10507D01*
X49681Y9681D01*
X50507Y9047D01*
X51468Y8649D01*
X52000Y8579D01*
Y12000D01*
D02*
G37*
G36*
X132000D02*
X128579D01*
X128649Y11468D01*
X129047Y10507D01*
X129681Y9681D01*
X130507Y9047D01*
X131468Y8649D01*
X132000Y8579D01*
Y12000D01*
D02*
G37*
G36*
X122000D02*
X118579D01*
X118649Y11468D01*
X119047Y10507D01*
X119681Y9681D01*
X120507Y9047D01*
X121468Y8649D01*
X122000Y8579D01*
Y12000D01*
D02*
G37*
G36*
X112000D02*
X108579D01*
X108649Y11468D01*
X109047Y10507D01*
X109681Y9681D01*
X110507Y9047D01*
X111468Y8649D01*
X112000Y8579D01*
Y12000D01*
D02*
G37*
G36*
X102000D02*
X98579D01*
X98649Y11468D01*
X99047Y10507D01*
X99681Y9681D01*
X100507Y9047D01*
X101468Y8649D01*
X102000Y8579D01*
Y12000D01*
D02*
G37*
G36*
X92000D02*
X88579D01*
X88649Y11468D01*
X89047Y10507D01*
X89681Y9681D01*
X90507Y9047D01*
X91468Y8649D01*
X92000Y8579D01*
Y12000D01*
D02*
G37*
G36*
X82000D02*
X78579D01*
X78649Y11468D01*
X79047Y10507D01*
X79681Y9681D01*
X80507Y9047D01*
X81468Y8649D01*
X82000Y8579D01*
Y12000D01*
D02*
G37*
G36*
X72000D02*
X68579D01*
X68649Y11468D01*
X69047Y10507D01*
X69681Y9681D01*
X70507Y9047D01*
X71468Y8649D01*
X72000Y8579D01*
Y12000D01*
D02*
G37*
G36*
X142500Y16487D02*
X141468Y16351D01*
X140507Y15953D01*
X139681Y15319D01*
X139047Y14493D01*
X138649Y13532D01*
X138513Y12500D01*
X138649Y11468D01*
X139047Y10507D01*
X139681Y9681D01*
X140507Y9047D01*
X141468Y8649D01*
X142500Y8513D01*
X143532Y8649D01*
X144493Y9047D01*
X145319Y9681D01*
X145953Y10507D01*
X146351Y11468D01*
X146487Y12500D01*
X146351Y13532D01*
X145953Y14493D01*
X145319Y15319D01*
X144493Y15953D01*
X143532Y16351D01*
X142500Y16487D01*
D02*
G37*
G36*
X222000Y21795D02*
X220187Y21616D01*
X218443Y21087D01*
X216836Y20228D01*
X215428Y19072D01*
X214272Y17664D01*
X213413Y16057D01*
X212884Y14313D01*
X212705Y12500D01*
X212884Y10687D01*
X213413Y8943D01*
X214272Y7336D01*
X215428Y5928D01*
X216836Y4772D01*
X218443Y3913D01*
X220187Y3384D01*
X222000Y3205D01*
X223813Y3384D01*
X225557Y3913D01*
X227164Y4772D01*
X228572Y5928D01*
X229728Y7336D01*
X230587Y8943D01*
X231116Y10687D01*
X231295Y12500D01*
X231116Y14313D01*
X230587Y16057D01*
X229728Y17664D01*
X228572Y19072D01*
X227164Y20228D01*
X225557Y21087D01*
X223813Y21616D01*
X222000Y21795D01*
D02*
G37*
G36*
X205487Y10000D02*
X198500D01*
Y3013D01*
X199470Y3108D01*
X200884Y3537D01*
X202187Y4234D01*
X203329Y5171D01*
X204266Y6313D01*
X204963Y7616D01*
X205392Y9030D01*
X205487Y10000D01*
D02*
G37*
%LPD*%
D10*
X31304Y151000D02*
X48304Y168000D01*
X154000D01*
X21756Y151000D02*
X31304D01*
X16000Y145244D02*
X21756Y151000D01*
X214000Y68000D02*
X222500Y59500D01*
Y59445D02*
Y59500D01*
X214000Y68000D02*
Y98000D01*
X197500Y114500D02*
X214000Y98000D01*
X168000Y10500D02*
X197500Y40000D01*
Y84500D01*
X154000Y168000D02*
X166500Y155500D01*
X146000Y98000D02*
X167000Y119000D01*
X16000Y98000D02*
X146000D01*
X107311Y109811D02*
X116500Y119000D01*
X16000Y109811D02*
X107311D01*
X16000Y133433D02*
X46067Y163500D01*
X109000D01*
X117000Y155500D01*
D37*
X107000D02*
D03*
X127000D02*
D03*
X117000D02*
D03*
X166500D02*
D03*
X176500D02*
D03*
X156500D02*
D03*
X116500Y119000D02*
D03*
X126500D02*
D03*
X106500D02*
D03*
X65500Y155500D02*
D03*
X75500D02*
D03*
X55500D02*
D03*
X167000Y119000D02*
D03*
X177000D02*
D03*
X157000D02*
D03*
X65000Y119500D02*
D03*
X75000D02*
D03*
X55000D02*
D03*
D38*
X168000Y10500D02*
D03*
X198000D02*
D03*
X183000D02*
D03*
D39*
X222000Y12500D02*
D03*
X11000D02*
D03*
X223000Y177000D02*
D03*
X12000Y179500D02*
D03*
D40*
X52500Y12500D02*
D03*
X62500D02*
D03*
X72500D02*
D03*
X82500D02*
D03*
X92500D02*
D03*
X102500D02*
D03*
X112500D02*
D03*
X122500D02*
D03*
X132500D02*
D03*
X142500D02*
D03*
X52500Y22500D02*
D03*
X62500D02*
D03*
X72500D02*
D03*
X82500D02*
D03*
X92500D02*
D03*
X102500D02*
D03*
X112500D02*
D03*
X122500D02*
D03*
X132500D02*
D03*
D41*
X142500D02*
D03*
D42*
X197500Y114500D02*
D03*
Y84500D02*
D03*
D43*
X214783Y35823D02*
D03*
Y153933D02*
D03*
X23717Y157055D02*
D03*
Y38945D02*
D03*
D44*
X222500Y142122D02*
D03*
Y130311D02*
D03*
Y118500D02*
D03*
Y106689D02*
D03*
Y94878D02*
D03*
Y83067D02*
D03*
Y71256D02*
D03*
Y59445D02*
D03*
Y47634D02*
D03*
X16000Y50756D02*
D03*
Y62567D02*
D03*
Y74378D02*
D03*
Y86189D02*
D03*
Y98000D02*
D03*
Y109811D02*
D03*
Y121622D02*
D03*
Y133433D02*
D03*
Y145244D02*
D03*
D45*
X91000Y56500D02*
D03*
X81000Y86000D02*
D03*
M02*
